<svg xmlns="http://www.w3.org/2000/svg" viewBox="0 0 340.01 507.88"><defs><style>.cls-1{fill:#5ccaf4;}.cls-2{fill:#009ee2;}.cls-3{fill:#231f20;}</style></defs><g id="Layer_2" data-name="Layer 2"><g id="Layer_1-2" data-name="Layer 1"><path class="cls-1" d="M315.09,368.25c2.73,20.8-2,40.73-2.36,61.71-.22,12-2.25,17.83-9.2,27.61-4.5,6.35-10.79,15.05-17.47,19.06-38.32,22.95-77.26,30.95-121.85,28.26-31.49-1.91-58-13.55-79.54-36.6C71.4,454.09,63.85,439.2,61.06,420s-8.41-37.78-7.27-57.19c1.65-28.13.41-56.35,2.27-84.49.94-14.09,2.29-28.42,6-42.1,4.65-17.35,1.19-27.07-9.84-41.53C23.47,157,4.13,111.28,2.62,64c-.3-9.3.19-19.05,4.79-27.14,2.38-4.19,5.75-7.72,9.14-11.15a102.19,102.19,0,0,1,15-13.18A58.63,58.63,0,0,1,88,7.85c11.47,5.31,20.88,14.24,29.16,23.78,3.9,4.48,7.63,9.18,10.2,14.52,3,6.17,4.29,13,5.79,19.66,2.08,9.3,4.55,18.51,7,27.72l21.27,79.4c3.63,13.54,7.23,28.11,2.4,41.27l13.07-.18C176.57,163.65,176.42,112,194,64.78c4.27-11.43,9.71-22.72,18.36-31.32,7.68-7.62,17.45-12.71,27.06-17.66,10-5.13,20.1-10.3,31.12-12.32,11.79-2.16,24-.57,35.47,3C313.89,9,321.72,12.61,327,18.94c7.2,8.66,8.35,20.69,9.19,31.92,1.93,25.89,3.56,53.36-8.55,76.32-4.33,8.2-10.25,15.44-15.18,23.3-6.39,10.18-11.1,21.35-17.56,31.48-10.14,15.91-25.77,29.55-32.31,47.57-3.52,9.7,1.34,11.41,7,19a160.54,160.54,0,0,1,12.94,20.81C298.66,299.52,310.64,334.22,315.09,368.25Z"/><path class="cls-2" d="M312.59,368.25c2.47,19.66-1.58,39.18-2.28,58.81-.27,7.43-.48,14.55-4,21.3a93.1,93.1,0,0,1-14.15,19.71c-5.91,6.42-13.81,10.3-21.52,14.17a193.07,193.07,0,0,1-23.74,10,196.22,196.22,0,0,1-50.06,10.06c-16.9,1.19-34.48,1.09-51.13-2.34a110.34,110.34,0,0,1-42.27-18.34c-13.06-9.38-24.77-21.79-32-36.21A83,83,0,0,1,64,422.55c-1.67-9.35-3.28-18.71-5-28.06-1.76-9.68-3.15-19.47-2.84-29.34.32-10.24.88-20.45,1-30.7.28-20.3.19-40.61,1.69-60.87a224.84,224.84,0,0,1,3.79-29.38c1.68-8,4.39-15.84,3.75-24.16C65.2,204.18,53,192.36,44.62,179.8,25,150.49,11,117,6.53,81.83a152.33,152.33,0,0,1-1.39-26c.43-9.3,3.08-17.43,9.36-24.42,6-6.66,12.66-13.36,20.32-18.09A55,55,0,0,1,58,5.51a56.61,56.61,0,0,1,24.23,2.7c8.24,2.83,15.58,7.85,22,13.66a109.81,109.81,0,0,1,17.64,19.78c5.34,8,7.09,17.07,9.19,26.27,4.54,19.87,10.24,39.51,15.51,59.2l8,30c2.59,9.64,5.49,19.26,7.48,29,1.85,9.1,2.46,18.48-.67,27.37a2.52,2.52,0,0,0,2.41,3.16l13.07-.18a2.54,2.54,0,0,0,2.5-2.5c-.35-47.28-.67-95.81,14.4-141.2,3.52-10.58,7.68-21.17,14.17-30.32s15.69-15.45,25.5-20.76C243.6,16.27,254,10.56,265.07,7.35c11.63-3.36,23.78-2.82,35.42.18,10.05,2.59,20.92,6.68,26.67,15.9s6,20.51,6.78,30.89c1.58,21.93,2.82,45.22-5.81,66-4.4,10.56-11.8,19.32-17.83,28.93-6.4,10.19-11.1,21.34-17.57,31.48-5.48,8.59-12.29,16.22-18.5,24.27a118.29,118.29,0,0,0-8.87,12.89c-2.51,4.31-5.11,9.19-6.1,14.12a12.84,12.84,0,0,0,2.11,10.46c2.82,3.93,6.21,7.38,9,11.39a218.23,218.23,0,0,1,16.91,30.42,295.54,295.54,0,0,1,22.45,66.87c1.16,5.68,2.14,11.39,2.9,17.13.42,3.14,5.43,3.18,5,0a286.53,286.53,0,0,0-18.83-70.07,310.45,310.45,0,0,0-15.16-32.12,169,169,0,0,0-9.21-15.13c-2.77-4-6.3-7.46-9-11.47s-.91-8.35.86-12.36a79.82,79.82,0,0,1,8-13.77c6.11-8.69,13.29-16.57,19.48-25.2,6.93-9.66,11.79-20.5,17.6-30.82s13.92-19.64,19.26-30.41c10.2-20.55,10.19-44.11,8.78-66.49-.68-10.76-.82-22.26-4.55-32.51S323.4,10.78,313.48,6.59A81.69,81.69,0,0,0,279.25.05c-12,.44-23.09,4.65-33.75,9.89-10.24,5-20.78,10.14-29.77,17.26s-15.28,16.55-20,26.84c-9.82,21.55-14.94,45.21-17.89,68.61-3.07,24.32-3.56,48.88-3.52,73.36q0,9,.09,18l2.5-2.5-13.07.18,2.41,3.17c3.21-9.13,2.77-18.83,1-28.21-1.88-10.09-4.92-20-7.57-29.89L143,94.32c-2.71-10.13-5.43-20.25-7.69-30.48-2.08-9.36-4.46-18.27-10.1-26.17-10.07-14.12-24-27.8-40.51-33.89a61.54,61.54,0,0,0-49,3.32c-8.27,4.3-15.07,10.81-21.54,17.41S2.84,38,1.11,47.19C-.56,56,0,65.27.72,74.2A206.6,206.6,0,0,0,4.82,101,230.85,230.85,0,0,0,23,152.23a255.14,255.14,0,0,0,13.37,24c4.89,7.76,10.36,15,15.73,22.45,4.4,6.1,8.41,12.8,9.28,20.42,1,8.65-2.1,16.83-3.76,25.19-4,20.1-4.7,40.91-5,61.35-.18,10.61-.2,21.22-.37,31.82s-1.17,21.35-1,32c.15,10,1.81,19.87,3.65,29.66,1.8,9.55,3.07,19.27,5.16,28.76,3.62,16.34,12.05,30.71,23.5,42.81a116.11,116.11,0,0,0,39.67,27.62c15.6,6.5,32.19,9,49,9.48,35.93,1.15,71.35-5.79,103.38-22.36,7.91-4.1,15.4-8.24,21.34-15,5.28-6,10.56-12.87,14.13-20.08,3.42-6.92,4.09-14.17,4.29-21.78.28-10.33,1.58-20.59,2.43-30.88.81-9.79,1.13-19.61-.1-29.38C317.2,365.1,312.19,365.06,312.59,368.25Z"/><path class="cls-1" d="M139.35,414.24c3.85-2.53,12.52,12.13,15,16s3.54,8.59,6.35,12.23c5.62,7.26,16.14,7.92,25.32,8,4.43,0,8.93,0,13.2-1.14s8.36-3.73,10.41-7.66c1.4-2.69,1.74-5.78,2.33-8.76s1.54-6.06,3.79-8.09,10.57-17.65,12.6-15.39"/><path class="cls-3" d="M140.61,416.4c.42-.26-.59.14-.12,0s-.27,0-.29,0c.67,0-.53-.18.15,0s-.3-.25.29.12c.32.2.64.38,1,.61-.45-.33.38.35.48.44.29.27.57.54.85.83.63.65,1.23,1.35,1.81,2.06a91.85,91.85,0,0,1,6.16,8.87c.88,1.38,1.79,2.75,2.54,4.21,1.29,2.54,2.22,5.25,3.6,7.74a20.75,20.75,0,0,0,11.8,9.47c4.86,1.66,10.14,2,15.23,2.08,6.11.11,12.62.28,18.38-2.08,5.48-2.25,9.49-6.35,10.95-12.17.69-2.79.93-5.68,1.86-8.41a9,9,0,0,1,1.61-3c.41-.48.89-.88,1.29-1.37,2.29-2.81,4.08-6,6.1-9,.57-.84,1.14-1.68,1.74-2.5l.28-.38c.1-.12.19-.25.28-.37-.16.21-.15.2,0,0l.72-.87c.22-.25.45-.5.68-.73s.95-.82.28-.28a1.07,1.07,0,0,1,.25-.16c.47-.24-.56.16-.18.07a2.07,2.07,0,0,1-1.71-.45c2.27,2.28,5.81-1.25,3.53-3.54-2.63-2.65-5.7.63-7.31,2.68-2.29,2.93-4.25,6.09-6.28,9.2l-1.22,1.83c-.18.25-.35.51-.54.76l-.24.34c-.36.51.28-.31,0,0a18.41,18.41,0,0,0-3.76,5.54c-2.08,5.16-1.26,11.38-5.63,15.43s-10.65,4.46-16.24,4.51c-5.26,0-10.67.08-15.83-1.1-4.74-1.09-9-3.31-11.52-7.64-1.42-2.47-2.36-5.18-3.62-7.73a48.09,48.09,0,0,0-2.73-4.58,90.58,90.58,0,0,0-7.54-10.61c-2.16-2.52-5.95-6.36-9.57-4.17-2.75,1.66-.24,6,2.52,4.32Z"/><path class="cls-3" d="M217,282a5,5,0,0,0-2.72-5.84,6.2,6.2,0,0,0-7,.84c-1.93,1.62-2.84,4.09-3.61,6.4a55.07,55.07,0,0,0-2.29,8.46c-.8,4.84-.93,12.53,5,14.25,4.82,1.4,10.57-1.19,14.06-4.42a16.89,16.89,0,0,0,5.32-13.4c-.32-4.86-2.67-10.61-7.4-12.71-5.45-2.41-10.14,2.84-13.26,6.69-3.32,4.11-4.95,9.18-2.91,14.28a16,16,0,0,0,11.31,9.62,22.29,22.29,0,0,0,8.3.29c2.5-.36,5.23-1,7.13-2.81,4.31-4.05,1.27-10.45-1.52-14.42-3-4.29-7.26-8.25-12.27-10-5.45-1.93-10.86.79-13.94,5.37a22.61,22.61,0,0,0-3,7.51c-.62,2.69-1.41,5.76-.67,8.5s2.94,4.4,5.32,5.6a27.51,27.51,0,0,0,7.87,2.66c5.43.88,11.07.07,15.48-3.39a15.83,15.83,0,0,0,6.24-12.06,14.28,14.28,0,0,0-7.34-12.09c-9.59-5.59-21.54-.11-27.46,8.2C192.34,297,190.19,311,200,315.88c4.58,2.3,9.94,1.87,14.82,1,5.45-1,10.15-3.58,12.17-9,1.88-5,1.26-10.93-.58-15.9a34.54,34.54,0,0,0-8.67-13.52c-4.11-3.69-9.64-4.57-14.47-1.64s-6.87,8-7.35,13.32c-.45,5,.47,10.44,3.61,14.43,3.38,4.29,9,5.63,14.28,5.61,9.46,0,19.65-5.3,21.47-15.31a15.88,15.88,0,0,0-3.06-13.13c-3.26-3.93-8.74-5.52-13.7-5.12-5.57.45-10.81,3-15.46,6-4,2.56-8.25,6.22-9.21,11.11-1.07,5.53,2.34,9.85,6.55,13a37.71,37.71,0,0,0,14.77,7c5.22,1,11,.49,15.52-2.51a11.08,11.08,0,0,0,4.81-5.89,9.7,9.7,0,0,0-1-7.29c-2.61-4.73-8-6.43-12.85-7.7-3.11-.81-4.44,4-1.32,4.82,3.5.91,7.8,1.86,9.76,5.25a4.38,4.38,0,0,1,.46,4c-.75,1.63-2.54,2.72-4.09,3.47-7.68,3.69-16.54-.54-22.88-5-2.59-1.81-5.58-4.59-4.8-8.09.73-3.32,3.81-5.81,6.52-7.59a33.63,33.63,0,0,1,11.89-5.32c3.46-.66,7.65-.17,10.38,2.26,4.9,4.37,3.52,12.41-.91,16.57a17.89,17.89,0,0,1-9.72,4.34c-3.47.51-7.68.35-10.83-1.34s-4.7-5.22-5.12-8.72c-.46-3.84,0-8.11,2.22-11.35,1.81-2.6,5.36-4.39,8.48-3.2,3.53,1.36,6,5.39,7.8,8.51a25,25,0,0,1,3.65,11.77c.07,3.73-.84,7.79-4.32,9.73-3.16,1.76-7.4,2.25-11,2.24s-7-1-8.65-4.34c-1.57-3.08-1.23-6.92-.26-10.13a20.64,20.64,0,0,1,5.68-9c5.31-5,14.67-7.38,20.3-1.59,5.09,5.24,1.53,13.32-4.65,15.76a17.53,17.53,0,0,1-11.95-.12,15.6,15.6,0,0,1-5.07-2.5c-1.51-1.28-1-3.35-.67-5.07.72-3.78,1.72-8.09,5-10.56,3.4-2.59,7-1,10.11,1.25a24.42,24.42,0,0,1,7.53,9c.6,1.21,1.44,3.14.64,4.43s-3.13,1.62-4.51,1.86c-3.69.64-7.92.1-11-2.19a9.62,9.62,0,0,1-4-8.64c.53-3.77,3.87-6.78,6.5-9.24,1.08-1,2.23-2,3.71-1.22a8,8,0,0,1,3.24,4A12.33,12.33,0,0,1,212,301c-1.29.38-3.59,1-4.78.12S206,298.25,206,297c-.16-4.56,1.38-9.2,2.94-13.43.4-1.09,1.22-2.86,2.23-3.11a1.3,1.3,0,0,1,.87.2c.12.07.42.28.27.23s.12-.88-.1-.17c-1,3.08,3.86,4.4,4.82,1.33Z"/><path class="cls-3" d="M146.87,285.42c1.06-4.86-4-7.71-8.24-7.12a18.1,18.1,0,0,0-10.86,6.36c-2.47,3.22-2.48,8.09,1,10.61,1.77,1.28,4,1.59,6.13,1.87a24.91,24.91,0,0,0,6.51.14c4.13-.51,8.21-2.38,10.38-6.11a8.58,8.58,0,0,0-1.4-10.46c-5.27-5.42-15.63-6-21.72-1.68a11.44,11.44,0,0,0-5.08,9.58,9.87,9.87,0,0,0,6,8.69c6.71,3,17,1.49,21.17-5.1a9.46,9.46,0,0,0,0-9.73c-2.23-3.61-6.36-4.62-10.35-3.92-7.12,1.26-15.33,7.66-15.16,15.49a12,12,0,0,0,4.65,9.17c3.37,2.6,7.77,2.85,11.74,1.59,3.74-1.19,8.06-3.43,10-7a7.82,7.82,0,0,0,.6-6.32,9.4,9.4,0,0,0-4.18-4.56,53.26,53.26,0,0,0-12.44-5.26c-4.51-1.39-9.08-2.57-13.66-3.72s-9.19-2.23-13.79-3.28l-6.92-1.57c-2.16-.48-4.44-1-6.53,0-3.71,1.76-4.14,6.94-3.18,10.44A13.56,13.56,0,0,0,98.73,292c4.06,1.92,8.69,2.45,13.1,3a90.31,90.31,0,0,0,13.94.87c4.25-.12,8.67-.81,12.34-3.08,3-1.88,6.34-5.36,6.21-9.22-.1-2.9-2.89-3.82-5.33-3.15a11.16,11.16,0,0,0-4.86,2.85,11,11,0,0,0-2.93,10.47,8.49,8.49,0,0,0,8.36,6.38,10.62,10.62,0,0,0,8.74-5c2-3.4,1.29-7.73-.73-10.94s-6.29-7.3-10.54-5.4a7.89,7.89,0,0,0-3.72,4.06,20.26,20.26,0,0,0-2,6.83c-.35,4,1.67,8.32,5.43,10.06,6.89,3.18,15.72-2.79,13.87-10.54-.89-3.74-3.89-6.44-7.33-7.85a2.53,2.53,0,0,0-3.08,1.75,2.57,2.57,0,0,0,1.75,3.08,6.39,6.39,0,0,1,3.91,4.67,3.85,3.85,0,0,1-2.23,4,5,5,0,0,1-5.31.08c-2-1.38-2.35-4-1.85-6.16a16.38,16.38,0,0,1,1.43-4c.33-.62.78-1.59,1.59-1.48,1.05.13,2.07,1.34,2.73,2.07a9.12,9.12,0,0,1,1.91,3.12,4.52,4.52,0,0,1-1.11,5.22,5.28,5.28,0,0,1-4.76,1.22c-2.16-.68-2.8-3.42-2.2-5.48a6.45,6.45,0,0,1,1.84-2.91,6.08,6.08,0,0,1,1.5-1l.39-.16q.34-.12.69-.21c.41-.12.48-.12.21,0l-1.1-.64c-.78-.68,0-1.38-.3-.65-.08.21-.12.45-.19.66a5.59,5.59,0,0,1-.47.95,8.24,8.24,0,0,1-1.91,2.17,13.33,13.33,0,0,1-5.35,2.52c-4.9,1.21-10.27.73-15.25.28-2.57-.23-5.13-.55-7.67-1a30.27,30.27,0,0,1-7-1.74c-3.23-1.42-5.75-4.65-5.32-8.32.06-.5.17-1.57.64-1.88s1.47-.07,2,.05c2.69.55,5.35,1.2,8,1.81,5.32,1.22,10.63,2.47,15.92,3.82,5.11,1.31,10.27,2.62,15.24,4.41a42.33,42.33,0,0,1,6.62,3c1.4.8,3.34,1.76,3,3.67s-2.39,3.3-4,4.2a14.38,14.38,0,0,1-6.18,2,6.74,6.74,0,0,1-7.06-5.6c-.61-3.24,1.79-6.52,4.46-8.47s8-4.78,10.9-2.34a4.1,4.1,0,0,1,1.4,3.4,4.81,4.81,0,0,1-.37,1.61,6.23,6.23,0,0,1-1.75,2.1c-2.85,2.27-7.27,2.94-10.78,2.29-3.36-.62-6.4-2.87-5.44-6.56s4.68-5.38,8.16-5.67,8.23.42,10.43,3.5-1.61,6.31-4.46,7.12a17.65,17.65,0,0,1-7,.34c-1.37-.17-4.06-.24-4.75-1.66-1.62-3.34,5-6.55,7.41-7.21a3.9,3.9,0,0,1,2.61,0,2.81,2.81,0,0,1,.88.7c-.68,3.14,4.14,4.48,4.82,1.33Z"/><path class="cls-1" d="M139.35,414.24c3,2.28,7.58.89,10.07-1.92s3.46-6.62,4.51-10.23,2.39-7.39,5.33-9.74c4.4-3.52,11.8-2.17,14.68,2.67a20.2,20.2,0,0,1,1.93,5.43l4,16c4.32-5.21-.29-12.94.08-19.7a13,13,0,0,1,23.87-6.46c2.93,4.44,2.94,10.31,5.77,14.83,3.79,6.05,12.75,8.07,18.81,4.28"/><path class="cls-3" d="M138.09,416.4c3.95,2.82,9.53,1.28,12.74-1.94,3.64-3.65,4.54-8.89,6.09-13.58,1.2-3.67,3.35-7.53,7.31-8a7.7,7.7,0,0,1,8.24,4.77,76.37,76.37,0,0,1,2.43,9.23l2.54,10.16c.41,1.69,3,2.61,4.17,1.11,4.46-5.64,1.71-12.08.94-18.42A11.54,11.54,0,0,1,184,392a10.66,10.66,0,0,1,6.18-4.71c5.22-1.42,10.55,1.63,12.64,6.46,1.33,3.06,1.8,6.44,3.06,9.53a16.46,16.46,0,0,0,5.49,7.31,16.8,16.8,0,0,0,18.25.95c2.74-1.67.23-6-2.53-4.32a11.71,11.71,0,0,1-13.57-1.28c-4.76-4.34-4.13-11.75-7.58-16.93a16,16,0,0,0-16.4-6.71A15.8,15.8,0,0,0,177.63,395c-.57,3.67.27,7.29,1,10.89.53,2.72,1.36,6.36-.53,8.76l4.18,1.11c-1.5-6-2.78-12.18-4.55-18.13-1.38-4.62-4.46-8.21-9.27-9.36a12.41,12.41,0,0,0-12.33,3.65c-3.46,4-4.26,9.15-6,14-.78,2.22-1.92,4.64-4,5.94-1.78,1.11-3.81,1.51-5.57.25a2.51,2.51,0,0,0-3.42.89,2.57,2.57,0,0,0,.9,3.43Z"/><path class="cls-3" d="M193.71,268.22l5.77,11.27a2.52,2.52,0,0,0,3.42.9,2.57,2.57,0,0,0,.9-3.42L198,265.69a2.52,2.52,0,0,0-3.42-.89,2.57,2.57,0,0,0-.9,3.42Z"/><path class="cls-3" d="M210.47,264.23v10.84a2.5,2.5,0,0,0,5,0V264.23a2.5,2.5,0,0,0-5,0Z"/><path class="cls-3" d="M225.53,264.4l-3.07,13.39a2.5,2.5,0,1,0,4.83,1.33l3.06-13.39a2.5,2.5,0,1,0-4.82-1.33Z"/><path class="cls-3" d="M120,268l6.7,11.65a2.5,2.5,0,0,0,4.32-2.53l-6.71-11.64A2.5,2.5,0,1,0,120,268Z"/><path class="cls-3" d="M137.1,264.1c.21.88.38,1.77.53,2.66l.09.62c.11.7-.05-.53,0,.17.05.45.1.9.14,1.35a39.55,39.55,0,0,1,.09,5.33,2.52,2.52,0,0,0,2.5,2.5,2.55,2.55,0,0,0,2.5-2.5,41.7,41.7,0,0,0-1.06-11.46,2.52,2.52,0,0,0-3.07-1.75,2.55,2.55,0,0,0-1.75,3.08Z"/><path class="cls-3" d="M154.48,266.59a49.44,49.44,0,0,0-6.95,11.4,2.82,2.82,0,0,0-.25,1.93,2.58,2.58,0,0,0,1.15,1.5c1.08.56,2.87.38,3.42-.9a46,46,0,0,1,2.86-5.59c.53-.89,1.08-1.76,1.67-2.6l.9-1.26.24-.31c0-.05.29-.39.09-.13s.07-.08.11-.13l.3-.38a2.68,2.68,0,0,0,.73-1.76,2.5,2.5,0,0,0-4.27-1.77Z"/><path class="cls-1" d="M82.38,208.55c3-4.12,2.78-9.72,2.11-14.79A128.62,128.62,0,0,0,75,159.41c-6.63-15.25-16.16-29.1-22.91-44.29S41.42,82.41,46.83,66.68c1.44-4.17,3.63-8.27,7.2-10.85,4.24-3.07,9.82-3.58,15-3.11a46.91,46.91,0,0,1,36.31,23.81c5.42,9.94,7,21.47,8.4,32.7L124.91,196"/><path class="cls-2" d="M84.54,209.81c3-4.3,3.18-9.82,2.6-14.87a125.64,125.64,0,0,0-3.21-17.1,147.68,147.68,0,0,0-13.1-32.54c-10.46-19.62-24-39.41-24-62.52A46.25,46.25,0,0,1,49.38,67c1.58-4.45,4.25-8.77,8.81-10.61,4.39-1.77,9.5-1.53,14.08-.69a44.53,44.53,0,0,1,32,24.27c4.81,10,5.94,21.39,7.34,32.27l9.59,74.57,1.18,9.17a2.58,2.58,0,0,0,2.5,2.5,2.53,2.53,0,0,0,2.5-2.5l-9.88-76.81c-1.49-11.62-2.37-23.65-6.12-34.83A50.07,50.07,0,0,0,93.69,59.62a47.8,47.8,0,0,0-27.88-9.55c-5.35,0-10.74,1.34-14.79,5s-6.27,9.13-7.61,14.33c-6,23.3,5.25,46.24,16.29,66.09,5.78,10.38,11.7,20.73,15.77,31.93a128.08,128.08,0,0,1,4.87,17c1.15,5.35,2.38,11.06,2,16.56a12.12,12.12,0,0,1-2.15,6.37,2.5,2.5,0,0,0,4.32,2.52Z"/><path class="cls-1" d="M204.07,203.89c7-18.84,8.46-39.18,11.07-59.1a501.52,501.52,0,0,1,17.92-82.35c1.33-4.31,2.87-8.85,6.32-11.75,4-3.31,9.47-3.76,14.61-4.06l20.51-1.21c8.62-.51,18.09-.77,24.9,4.54,4,3.1,6.47,7.74,8,12.52A45.31,45.31,0,0,1,301,102.8c-6.7,9.09-16.59,15.31-23.93,23.88-7.57,8.83-12.13,19.78-16.57,30.52l-19.16,46.34"/><path class="cls-2" d="M206.48,204.55c4.63-12.55,6.85-25.78,8.58-39,1.76-13.39,3.23-26.8,5.52-40.11q3.53-20.44,8.72-40.53,2.59-10,5.61-20c1.53-5.05,3-10.94,8-13.63a20.81,20.81,0,0,1,7.89-2c3.17-.29,6.36-.41,9.54-.6,6.56-.39,13.15-1,19.73-1.07,5.35-.1,11.06.21,15.81,2.93s7.63,7.76,9.27,12.91a42.88,42.88,0,0,1-2.92,32.6c-5.62,10.66-15.88,17.3-24.11,25.72-8.91,9.13-14.19,20.64-19,32.28q-8.13,19.55-16.18,39.12l-4,9.63a2.52,2.52,0,0,0,1.74,3.08,2.57,2.57,0,0,0,3.08-1.75l16.88-40.83c4.87-11.78,9.4-24.32,17.64-34.25,7.89-9.5,18.8-16.06,25.81-26.37a48.06,48.06,0,0,0,7.34-34.54,36.26,36.26,0,0,0-6.92-16.67,23.64,23.64,0,0,0-15-8.28c-6.1-1-12.25-.5-18.38-.14-6.88.4-13.82.59-20.68,1.27-6.24.62-12,2.48-15.71,7.88a31.23,31.23,0,0,0-3.58,8c-1,3.25-2,6.53-2.94,9.8q-6,20.63-10.13,41.69c-2.74,13.83-4.8,27.77-6.49,41.77-1.63,13.42-3.19,26.92-6.78,40q-1.35,4.91-3.11,9.69a2.5,2.5,0,1,0,4.82,1.32Z"/></g></g></svg>