<svg fill="#000000" xmlns="http://www.w3.org/2000/svg" viewBox="0 0 144.51 81.68"><defs></defs><g id="Layer_2" data-name="Layer 2"><g id="Layer_1-2" data-name="Layer 1"><path class="cls-1" d="M4.4,25.61,49,70.44c1.75,1.76,3.45,3.6,5.28,5.27a23.86,23.86,0,0,0,8.36,5.1,16.2,16.2,0,0,0,5.07.86,6.77,6.77,0,0,0,.78,0A19.54,19.54,0,0,0,73.08,81c4.62-1.38,8-4.45,11.66-7.42l5.82-4.76Q102.47,59.05,114.14,49q13.14-11.32,26-23a15.2,15.2,0,0,0,4.4-10.6,15.27,15.27,0,0,0-4.4-10.61C137.25,2.14,133.5.19,129.51.37A16.27,16.27,0,0,0,118.9,4.76Q96.82,24.85,73.84,43.91c-4.34,3.6-8.69,7.19-13.09,10.71l3-2.35a10.65,10.65,0,0,1-1.71,1.11l3.58-1.51a5.46,5.46,0,0,1-1.13.34l4-.54a2.55,2.55,0,0,1-.78,0l4,.54a4.89,4.89,0,0,1-1.07-.32l3.58,1.51a8.5,8.5,0,0,1-1-.61l3,2.35a56.18,56.18,0,0,1-4.63-4.5l-4.92-5-10-10.06L36.86,15.69,25.62,4.39A15.47,15.47,0,0,0,15,0,15.28,15.28,0,0,0,4.4,4.39C1.78,7.25-.17,11,0,15A15.71,15.71,0,0,0,4.4,25.61Z"/></g></g></svg>