<svg xmlns="http://www.w3.org/2000/svg" viewBox="0 0 427 384.29"><defs><style>.cls-1{fill:#5fcaf4;}.cls-2{fill:#209dd8;}.cls-3{fill:#231f20;}.cls-4{fill:#a7d050;}.cls-5{fill:#176533;}.cls-6{fill:#f2644a;}.cls-7{fill:#9c2420;}.cls-8{fill:#de7ab1;}.cls-9{fill:#cf3894;}.cls-10{fill:#fcaf22;}.cls-11{fill:#bf7e2a;}</style></defs><g id="Layer_2" data-name="Layer 2"><g id="Layer_1-2" data-name="Layer 1"><g id="Layer_2-2" data-name="Layer 2"><g id="Layer_1-2-2" data-name="Layer 1-2"><path class="cls-1" d="M285.47,310.91c1.44,10.93-1.05,21.4-1.24,32.42-.11,6.31-1.18,9.37-4.83,14.51-2.36,3.33-5.67,7.91-9.18,10-20.13,12.06-40.59,16.26-64,14.85-16.55-1-30.48-7.12-41.79-19.23-7-7.46-10.94-15.28-12.41-25.37s-4.41-19.85-3.82-30c.87-14.78.22-29.61,1.2-44.39.49-7.41,1.2-14.93,3.15-22.12,2.44-9.12.62-14.22-5.17-21.82-15.1-19.8-25.26-43.82-26.06-68.66-.16-4.88.1-10,2.52-14.26a28.89,28.89,0,0,1,4.8-5.85,53.58,53.58,0,0,1,7.88-6.93,30.82,30.82,0,0,1,29.66-2.46c6,2.79,11,7.48,15.32,12.5a35,35,0,0,1,5.36,7.62c1.57,3.25,2.25,6.83,3,10.33,1.09,4.89,2.39,9.73,3.68,14.57l11.17,41.71c1.91,7.11,3.8,14.77,1.26,21.68l6.87-.09c-.17-26.47-.25-53.6,9-78.41,2.24-6,5.1-11.94,9.64-16.45,4-4,9.17-6.68,14.22-9.28,5.25-2.7,10.56-5.41,16.35-6.47a39.23,39.23,0,0,1,18.63,1.57c4.14,1.33,8.26,3.22,11,6.55,3.78,4.55,4.39,10.87,4.83,16.77,1,13.6,1.87,28-4.49,40.09-2.28,4.31-5.39,8.12-8,12.24-3.36,5.35-5.83,11.22-9.22,16.54-5.33,8.36-13.54,15.53-17,25-1.85,5.1.7,6,3.68,10a84.85,84.85,0,0,1,6.8,10.93C276.84,274.81,283.13,293,285.47,310.91Z"/><path class="cls-2" d="M284.16,310.91c1.3,10.33-.83,20.59-1.2,30.9-.14,3.9-.25,7.64-2.1,11.19a49.63,49.63,0,0,1-7.43,10.36c-3.11,3.37-7.26,5.41-11.31,7.44a100.91,100.91,0,0,1-12.47,5.25,103.14,103.14,0,0,1-26.3,5.29c-8.88.62-18.12.57-26.86-1.23a57.9,57.9,0,0,1-22.21-9.64,53.73,53.73,0,0,1-16.81-19,43.46,43.46,0,0,1-3.91-12c-.88-4.91-1.72-9.83-2.63-14.74a74,74,0,0,1-1.49-15.42c.17-5.38.46-10.74.53-16.12.14-10.67.1-21.34.88-32a119.63,119.63,0,0,1,2-15.44c.89-4.2,2.31-8.32,2-12.69-.62-8.33-7-14.54-11.43-21.14-10.31-15.4-17.67-33-20-51.47a79.06,79.06,0,0,1-.73-13.66A19.61,19.61,0,0,1,127.55,134a51.06,51.06,0,0,1,10.68-9.5,28.87,28.87,0,0,1,12.18-4.11,29.9,29.9,0,0,1,12.73,1.42,34,34,0,0,1,11.55,7.18A57.27,57.27,0,0,1,184,139.33c2.81,4.2,3.73,9,4.83,13.8,2.38,10.44,5.38,20.76,8.15,31.1l4.2,15.76c1.36,5.07,2.89,10.12,3.93,15.24,1,4.78,1.29,9.71-.35,14.38a1.31,1.31,0,0,0,.94,1.61,1.25,1.25,0,0,0,.32.05l6.87-.1a1.33,1.33,0,0,0,1.31-1.31c-.18-24.84-.35-50.33,7.57-74.18,1.85-5.56,4-11.12,7.44-15.93s8.25-8.12,13.4-10.91c5.34-2.84,10.81-5.84,16.62-7.53a35.19,35.19,0,0,1,18.61.09c5.28,1.36,11,3.51,14,8.36S295,140.53,295.38,146c.83,11.52,1.48,23.75-3.06,34.67-2.31,5.55-6.2,10.15-9.36,15.2-3.37,5.35-5.84,11.21-9.23,16.54-2.88,4.51-6.46,8.52-9.72,12.75a60.21,60.21,0,0,0-4.66,6.77,25.34,25.34,0,0,0-3.21,7.42,6.75,6.75,0,0,0,1.11,5.49c1.48,2.07,3.26,3.88,4.73,6a114.31,114.31,0,0,1,8.88,16,155.55,155.55,0,0,1,11.8,35.13q.91,4.47,1.52,9c.22,1.65,2.85,1.67,2.63,0a150.5,150.5,0,0,0-9.9-36.81,163.4,163.4,0,0,0-8-16.88,89.64,89.64,0,0,0-4.84-8c-1.45-2.1-3.31-3.92-4.73-6s-.48-4.39.45-6.5a42.09,42.09,0,0,1,4.21-7.23c3.21-4.57,7-8.71,10.23-13.24,3.64-5.07,6.2-10.77,9.25-16.19s7.31-10.32,10.12-16C299,173.34,299,161,298.25,149.2c-.36-5.65-.43-11.69-2.39-17.08s-6-9-11.23-11.21a42.89,42.89,0,0,0-18-3.44c-6.3.24-12.13,2.45-17.73,5.2-5.38,2.63-10.91,5.33-15.64,9.07a37.42,37.42,0,0,0-10.51,14.1c-5.15,11.32-7.84,23.75-9.39,36-1.62,12.78-1.87,25.68-1.85,38.54q0,4.74,0,9.46l1.32-1.31-6.87.09,1.27,1.67c1.68-4.8,1.45-9.89.52-14.82-1-5.3-2.58-10.51-4-15.71L195.06,167c-1.42-5.32-2.85-10.64-4-16-1.09-4.92-2.34-9.6-5.3-13.75-5.29-7.42-12.61-14.61-21.29-17.81a32.35,32.35,0,0,0-25.74,1.75c-4.34,2.26-7.92,5.68-11.32,9.14s-5.94,7.09-6.85,11.92c-.88,4.63-.58,9.5-.21,14.19a107.82,107.82,0,0,0,2.16,14.08A121.1,121.1,0,0,0,132,197.42,133.71,133.71,0,0,0,139,210c2.57,4.08,5.45,7.88,8.27,11.8,2.31,3.2,4.42,6.72,4.87,10.73.53,4.54-1.1,8.84-2,13.23-2.1,10.56-2.47,21.49-2.63,32.23-.09,5.57-.1,11.15-.19,16.72s-.62,11.21-.53,16.81a91.76,91.76,0,0,0,1.92,15.58c.94,5,1.61,10.13,2.71,15.11a47.79,47.79,0,0,0,12.34,22.49,61,61,0,0,0,20.85,14.51c8.19,3.42,16.91,4.73,25.74,5,18.88.61,37.48-3,54.31-11.74,4.16-2.16,8.09-4.33,11.21-7.89a50.66,50.66,0,0,0,7.43-10.54c1.79-3.64,2.14-7.45,2.25-11.45.15-5.42.83-10.81,1.28-16.22a74.47,74.47,0,0,0-.06-15.44C286.58,309.26,284,309.24,284.16,310.91Z"/><path class="cls-1" d="M193.14,335.07c2-1.32,6.58,6.38,7.89,8.41s1.86,4.51,3.33,6.43c2.95,3.81,8.48,4.16,13.3,4.2a26.82,26.82,0,0,0,6.94-.6,8.59,8.59,0,0,0,5.47-4,17.14,17.14,0,0,0,1.22-4.61,7.56,7.56,0,0,1,2-4.25c1.18-1.06,5.56-9.27,6.62-8.08"/><path class="cls-3" d="M193.81,336.21c.22-.14-.31.07-.07,0s-.14,0-.15,0c.35,0-.28-.09.08,0s-.16-.13.15.06l.53.32c-.24-.17.2.19.25.23l.45.44c.33.34.64.71.95,1.08a47.77,47.77,0,0,1,3.23,4.66c.47.73.94,1.45,1.34,2.21.68,1.34,1.16,2.76,1.89,4.07a10.92,10.92,0,0,0,6.2,5,26.07,26.07,0,0,0,8,1.09c3.21.06,6.63.15,9.66-1.09a9.28,9.28,0,0,0,5.75-6.4c.36-1.46.49-3,1-4.42a4.67,4.67,0,0,1,.84-1.57c.22-.25.47-.46.68-.72,1.2-1.48,2.14-3.15,3.2-4.73.3-.44.6-.88.92-1.31l.15-.2a2.43,2.43,0,0,0,.14-.2h0l.38-.45.36-.39c.12-.12.5-.43.15-.15a.57.57,0,0,1,.13-.08c.24-.13-.3.08-.1,0a1.09,1.09,0,0,1-.9-.24,1.32,1.32,0,0,0,1.86-1.86c-1.38-1.39-3,.33-3.84,1.41-1.21,1.54-2.23,3.2-3.3,4.83l-.64,1-.29.4-.12.18c-.19.27.15-.16,0,0a9.81,9.81,0,0,0-2,2.91c-1.09,2.71-.66,6-3,8.11s-5.59,2.34-8.53,2.37a37.31,37.31,0,0,1-8.31-.58,8.94,8.94,0,0,1-6.06-4c-.74-1.3-1.24-2.73-1.9-4.06a24.25,24.25,0,0,0-1.43-2.41,49.41,49.41,0,0,0-4-5.58c-1.14-1.32-3.13-3.34-5-2.19-1.45.88-.13,3.16,1.32,2.27Z"/><path class="cls-3" d="M233.94,265.6a2.64,2.64,0,0,0-1.43-3.07,3.28,3.28,0,0,0-3.68.44,7.11,7.11,0,0,0-1.89,3.37,29.42,29.42,0,0,0-1.21,4.44c-.42,2.54-.49,6.58,2.63,7.49,2.53.73,5.55-.63,7.39-2.32a8.9,8.9,0,0,0,2.79-7c-.17-2.56-1.4-5.58-3.89-6.68-2.86-1.27-5.32,1.49-7,3.51s-2.6,4.83-1.53,7.5a8.41,8.41,0,0,0,5.94,5.06,11.84,11.84,0,0,0,4.36.15,6.68,6.68,0,0,0,3.75-1.48c2.26-2.12.66-5.49-.8-7.57a13.86,13.86,0,0,0-6.45-5.25c-2.86-1-5.7.41-7.32,2.82a11.94,11.94,0,0,0-1.58,3.94,9.58,9.58,0,0,0-.35,4.47,4.87,4.87,0,0,0,2.8,2.94,14.71,14.71,0,0,0,4.13,1.4,10.33,10.33,0,0,0,8.13-1.78,8.31,8.31,0,0,0,3.28-6.34,7.49,7.49,0,0,0-3.86-6.35c-5-2.94-11.31-.06-14.42,4.31-2.79,3.92-3.92,11.28,1.24,13.84,2.4,1.21,5.22,1,7.78.53,2.87-.53,5.34-1.89,6.4-4.73a12.27,12.27,0,0,0-.31-8.36,18.24,18.24,0,0,0-4.55-7.1,6.23,6.23,0,0,0-7.6-.86c-2.54,1.54-3.61,4.2-3.87,7a10.8,10.8,0,0,0,1.9,7.58c1.78,2.25,4.73,3,7.5,3,5,0,10.33-2.79,11.28-8.05a8.35,8.35,0,0,0-1.6-6.9,8.55,8.55,0,0,0-7.2-2.69,18,18,0,0,0-8.12,3.16c-2.11,1.34-4.34,3.26-4.84,5.83-.56,2.91,1.23,5.18,3.44,6.83a19.66,19.66,0,0,0,7.76,3.68,11,11,0,0,0,8.15-1.32,5.84,5.84,0,0,0,2.53-3.09,5.12,5.12,0,0,0-.53-3.83c-1.37-2.49-4.2-3.38-6.75-4a1.31,1.31,0,0,0-.69,2.53c1.84.48,4.1,1,5.13,2.76a2.34,2.34,0,0,1,.24,2.1,4.43,4.43,0,0,1-2.15,1.83c-4,1.94-8.69-.29-12-2.63-1.36-.95-2.93-2.41-2.52-4.25s2-3.05,3.42-4a17.53,17.53,0,0,1,6.25-2.79,6.53,6.53,0,0,1,5.45,1.18c2.58,2.3,1.85,6.52-.48,8.71a9.36,9.36,0,0,1-5.1,2.28,9.63,9.63,0,0,1-5.69-.7,5.8,5.8,0,0,1-2.69-4.58,8.86,8.86,0,0,1,1.16-6,4,4,0,0,1,4.46-1.68c1.85.72,3.15,2.83,4.1,4.47a13.3,13.3,0,0,1,1.92,6.19c0,2-.45,4.09-2.27,5.11a12.29,12.29,0,0,1-5.78,1.17c-1.89,0-3.68-.52-4.55-2.28a7.34,7.34,0,0,1-.13-5.32,10.82,10.82,0,0,1,3-4.73c2.79-2.62,7.71-3.87,10.66-.83,2.68,2.75.81,7-2.44,8.28a9.28,9.28,0,0,1-6.28-.06,8.28,8.28,0,0,1-2.66-1.32c-.79-.67-.53-1.76-.35-2.66.38-2,.9-4.25,2.62-5.55s3.68-.53,5.32.66a12.75,12.75,0,0,1,4,4.73c.32.63.76,1.64.34,2.32s-1.65.85-2.37,1a7.66,7.66,0,0,1-5.78-1.15,5.06,5.06,0,0,1-2.1-4.54c.28-2,2-3.56,3.41-4.85.57-.53,1.17-1,1.95-.65a4.2,4.2,0,0,1,1.7,2.11,6.48,6.48,0,0,1-3.43,8.49,5,5,0,0,1-.65.23c-.68.2-1.88.53-2.51.07s-.64-1.51-.64-2.17a19.33,19.33,0,0,1,1.54-7.05c.22-.58.65-1.51,1.18-1.64a.65.65,0,0,1,.45.11c.07,0,.22.14.15.12s.06-.46-.06-.09c-.52,1.62,2,2.31,2.54.7Z"/><path class="cls-3" d="M197.1,267.4c.55-2.56-2.11-4-4.33-3.74a9.49,9.49,0,0,0-5.71,3.34,3.9,3.9,0,0,0,.53,5.57,6.82,6.82,0,0,0,3.22,1,13.05,13.05,0,0,0,3.42.08,7.11,7.11,0,0,0,5.45-3.21,4.51,4.51,0,0,0-.74-5.5c-2.76-2.84-8.21-3.15-11.41-.88a6,6,0,0,0-2.66,5,5.16,5.16,0,0,0,3.15,4.57c3.52,1.57,8.93.78,11.12-2.68a5,5,0,0,0,0-5.11,5.06,5.06,0,0,0-5.44-2.06c-3.74.66-8,4-8,8.14a6.26,6.26,0,0,0,2.44,4.81,6.68,6.68,0,0,0,6.17.84c2-.63,4.23-1.8,5.25-3.68a4.1,4.1,0,0,0,.32-3.32,4.92,4.92,0,0,0-2.2-2.39,27.82,27.82,0,0,0-6.53-2.77c-2.37-.73-4.78-1.35-7.18-1.95s-4.83-1.17-7.25-1.73l-3.63-.82a5.17,5.17,0,0,0-3.43,0c-1.95.92-2.18,3.65-1.67,5.48a7.09,7.09,0,0,0,3.77,4.45,22.59,22.59,0,0,0,6.89,1.58,48.38,48.38,0,0,0,7.32.46,13,13,0,0,0,6.48-1.62c1.58-1,3.33-2.82,3.27-4.84-.06-1.53-1.52-2-2.8-1.66a5.84,5.84,0,0,0-4.1,7,4.47,4.47,0,0,0,4.4,3.35,5.21,5.21,0,0,0,4.2-8.37c-1.06-1.69-3.3-3.84-5.53-2.84a4.16,4.16,0,0,0-2,2.13,10.76,10.76,0,0,0-1.05,3.59,5.37,5.37,0,0,0,2.85,5.29c3.62,1.67,8.26-1.47,7.29-5.54a6.18,6.18,0,0,0-3.85-4.13,1.32,1.32,0,1,0-.7,2.54,3.37,3.37,0,0,1,2.06,2.45,2,2,0,0,1-1.18,2.11,2.65,2.65,0,0,1-2.79,0,3,3,0,0,1-1-3.24,8.77,8.77,0,0,1,.75-2.1c.18-.33.41-.83.84-.78s1.09.71,1.43,1.09a4.79,4.79,0,0,1,1,1.64,2.38,2.38,0,0,1-.59,2.74,2.77,2.77,0,0,1-2.5.64c-1.13-.35-1.47-1.79-1.15-2.88a3.35,3.35,0,0,1,1-1.52,3,3,0,0,1,.79-.53l.21-.08a2.47,2.47,0,0,1,.36-.11c.21-.07.25-.07.11,0l-.58-.34c-.41-.36,0-.73-.16-.34,0,.11-.06.23-.1.34a2.57,2.57,0,0,1-.24.5,4.25,4.25,0,0,1-1,1.14,7,7,0,0,1-2.81,1.33,24.73,24.73,0,0,1-8,.14c-1.35-.12-2.69-.28-4-.52a16.11,16.11,0,0,1-3.68-.91,4.41,4.41,0,0,1-2.79-4.38c0-.26.09-.82.33-1s.78,0,1.06,0c1.41.29,2.81.63,4.2.95,2.79.64,5.58,1.3,8.36,2s5.4,1.38,8,2.32a22.62,22.62,0,0,1,3.48,1.57c.73.42,1.75.93,1.57,1.93s-1.25,1.74-2.1,2.21a7.64,7.64,0,0,1-3.25,1.05,3.54,3.54,0,0,1-3.7-2.94c-.32-1.71.94-3.43,2.34-4.45s4.2-2.51,5.73-1.23a2.15,2.15,0,0,1,.73,1.78,2.5,2.5,0,0,1-.19.85,3.26,3.26,0,0,1-.92,1.1,7.39,7.39,0,0,1-5.67,1.21c-1.76-.33-3.36-1.51-2.85-3.45s2.45-2.83,4.28-3,4.33.22,5.48,1.84-.84,3.31-2.34,3.74a9.13,9.13,0,0,1-3.68.18c-.72-.09-2.13-.13-2.49-.87-.86-1.76,2.62-3.44,3.89-3.79a2,2,0,0,1,1.37,0,1.37,1.37,0,0,1,.46.37c-.35,1.65,2.18,2.35,2.53.7Z"/><path class="cls-1" d="M193.14,335.07c1.58,1.2,4,.47,5.3-1s1.81-3.48,2.36-5.38,1.26-3.88,2.8-5.12a5.44,5.44,0,0,1,7.72,1.41,10.64,10.64,0,0,1,1,2.85l2.1,8.41c2.27-2.74-.15-6.8,0-10.35a6.83,6.83,0,0,1,12.55-3.4c1.53,2.33,1.54,5.42,3,7.79a7.44,7.44,0,0,0,9.88,2.25"/><path class="cls-3" d="M192.48,336.21c2.08,1.48,5,.67,6.7-1,1.91-1.92,2.38-4.67,3.2-7.13.63-1.93,1.76-4,3.84-4.21a4,4,0,0,1,4.32,2.51,38.9,38.9,0,0,1,1.28,4.85l1.34,5.34a1.32,1.32,0,0,0,2.19.58c2.34-3,.9-6.35.49-9.68a6.06,6.06,0,0,1,.76-4.06,5.57,5.57,0,0,1,3.25-2.47,5.73,5.73,0,0,1,6.64,3.39c.7,1.61.95,3.38,1.61,5a8.7,8.7,0,0,0,2.88,3.84,8.85,8.85,0,0,0,9.59.5c1.44-.88.12-3.16-1.33-2.27a6.16,6.16,0,0,1-7.13-.68c-2.5-2.28-2.17-6.17-4-8.89a8.43,8.43,0,0,0-8.62-3.53,8.31,8.31,0,0,0-6.25,6.68,16.3,16.3,0,0,0,.52,5.72c.28,1.43.72,3.34-.28,4.6l2.2.58c-.79-3.15-1.46-6.4-2.39-9.52a6.72,6.72,0,0,0-4.87-4.92,6.5,6.5,0,0,0-6.48,1.92c-1.82,2.1-2.24,4.81-3.15,7.35a5.79,5.79,0,0,1-2.1,3.12,2.53,2.53,0,0,1-2.93.14,1.32,1.32,0,0,0-1.8.46,1.36,1.36,0,0,0,.48,1.81Z"/><path class="cls-3" d="M221.7,258.36l3,5.92a1.31,1.31,0,0,0,1.79.47A1.33,1.33,0,0,0,227,263L224,257a1.33,1.33,0,0,0-1.8-.47,1.35,1.35,0,0,0-.47,1.8Z"/><path class="cls-3" d="M230.51,256.26V262a1.32,1.32,0,0,0,2.63,0v-5.7a1.32,1.32,0,0,0-2.63,0Z"/><path class="cls-3" d="M238.42,256.35l-1.61,7a1.32,1.32,0,0,0,2.54.7h0l1.6-7a1.3,1.3,0,0,0-.91-1.61,1.31,1.31,0,0,0-1.62.91Z"/><path class="cls-3" d="M183,258.25l3.52,6.12a1.33,1.33,0,0,0,1.8.47,1.31,1.31,0,0,0,.47-1.8l-3.53-6.12a1.31,1.31,0,1,0-2.33,1.2A.83.83,0,0,0,183,258.25Z"/><path class="cls-3" d="M192,256.2c.11.46.2.93.28,1.39l0,.33c.06.37,0-.28,0,.09s.05.47.07.71a20.14,20.14,0,0,1,0,2.8,1.32,1.32,0,0,0,1.31,1.31,1.34,1.34,0,0,0,1.32-1.31,22.17,22.17,0,0,0-.56-6,1.32,1.32,0,0,0-1.61-.92,1.33,1.33,0,0,0-.92,1.62Z"/><path class="cls-3" d="M201.09,257.5a26.25,26.25,0,0,0-3.65,6,1.51,1.51,0,0,0-.13,1,1.38,1.38,0,0,0,.61.79,1.33,1.33,0,0,0,1.79-.48,26.06,26.06,0,0,1,1.5-2.93c.28-.47.57-.93.88-1.37l.47-.66.13-.16s.15-.21.05-.07l.06-.07.15-.2a1.4,1.4,0,0,0,.39-.93,1.31,1.31,0,0,0-1.31-1.31,1.37,1.37,0,0,0-.94.38Z"/><path class="cls-1" d="M163.21,227c1.58-2.16,1.47-5.1,1.11-7.77a67.25,67.25,0,0,0-5-18c-3.49-8-8.49-15.29-12-23.27s-5.6-17.19-2.76-25.45a11.42,11.42,0,0,1,3.78-5.7c2.23-1.61,5.16-1.88,7.88-1.63a24.64,24.64,0,0,1,19.08,12.5c2.84,5.23,3.67,11.28,4.41,17.18l5.87,45.59"/><path class="cls-2" d="M164.35,227.67c1.58-2.25,1.67-5.15,1.37-7.81a66.71,66.71,0,0,0-1.69-9,78.16,78.16,0,0,0-6.88-17.1c-5.5-10.3-12.61-20.7-12.61-32.84a24.09,24.09,0,0,1,1.34-8.29c.83-2.34,2.23-4.61,4.63-5.58a13.55,13.55,0,0,1,7.39-.36,23.43,23.43,0,0,1,16.82,12.75c2.52,5.26,3.12,11.24,3.85,16.95l5,39.18.62,4.82a1.32,1.32,0,0,0,2.63,0l-5.19-40.35c-.79-6.11-1.25-12.43-3.22-18.3a26.3,26.3,0,0,0-9.29-13,25.18,25.18,0,0,0-14.65-5,11.39,11.39,0,0,0-7.77,2.63c-2.13,1.92-3.29,4.8-4,7.53-3.15,12.24,2.76,24.29,8.56,34.72,3,5.45,6.15,10.89,8.28,16.77a66.07,66.07,0,0,1,2.56,8.94,31.61,31.61,0,0,1,1.05,8.7,6.25,6.25,0,0,1-1.13,3.34,1.32,1.32,0,0,0,2.27,1.33Z"/><path class="cls-1" d="M227.15,224.56c3.67-9.89,4.44-20.58,5.81-31a263.29,263.29,0,0,1,9.42-43.27c.7-2.26,1.5-4.65,3.32-6.17,2.1-1.74,5-2,7.67-2.13l10.78-.64c4.53-.27,9.5-.4,13.08,2.39a13.17,13.17,0,0,1,4.2,6.57,23.79,23.79,0,0,1-3.36,21.19c-3.52,4.77-8.72,8-12.57,12.54s-6.37,10.39-8.71,16l-10.06,24.34"/><path class="cls-2" d="M228.41,224.91c2.44-6.59,3.6-13.54,4.51-20.49s1.7-14.08,2.9-21.07q1.86-10.74,4.58-21.29,1.36-5.26,2.95-10.51c.8-2.65,1.57-5.75,4.2-7.16a10.87,10.87,0,0,1,4.15-1c1.66-.15,3.34-.22,5-.32,3.45-.2,6.91-.52,10.36-.56,2.81-.05,5.81.11,8.31,1.54s4,4.08,4.87,6.78a22.57,22.57,0,0,1-1.53,17.13c-3,5.6-8.35,9.09-12.67,13.51-4.68,4.8-7.46,10.85-10,17q-4.27,10.27-8.5,20.55l-2.1,5.06a1.32,1.32,0,0,0,.91,1.62,1.35,1.35,0,0,0,1.62-.92l8.87-21.45c2.55-6.19,4.93-12.78,9.26-18,4.15-5,9.88-8.44,13.56-13.86a25.26,25.26,0,0,0,3.86-18.14,19,19,0,0,0-3.64-8.76,12.37,12.37,0,0,0-7.88-4.35,43.85,43.85,0,0,0-9.65-.08c-3.62.22-7.26.31-10.87.67-3.28.33-6.3,1.31-8.25,4.14a16.32,16.32,0,0,0-1.88,4.2c-.53,1.71-1,3.44-1.55,5.15q-3.15,10.85-5.32,21.91c-1.44,7.26-2.52,14.59-3.41,21.94-.85,7.05-1.67,14.14-3.56,21-.47,1.72-1,3.42-1.63,5.1a1.31,1.31,0,0,0,.86,1.64,1.33,1.33,0,0,0,1.65-.87s0,0,0-.08Z"/></g></g><path class="cls-4" d="M53.62,168.54c-5.11-9.19-10.13-21-4-29.51a23,23,0,0,1,6.28-5.57c7.49-4.91,16.79-8.25,25.37-5.72,12.14,3.59,18.38,18,16.94,30.53s-8.64,23.64-15.83,34-14.74,21.12-17.08,33.56c-4.94-6.37-14-7.13-21.66-9.75-10.72-3.68-19.35-11.67-27.07-20C11.71,191,7,185.4,4.39,178.78s-2.78-14.57,1.14-20.51c4.73-7.15,13.88-9.68,22.29-11.37,4.56-.92,9.44-1.72,13.75,0,8,3.27,10.27,13.39,11.39,22"/><path class="cls-5" d="M55.78,167.28c-2.76-5-5.38-10.27-6.26-15.95a16.54,16.54,0,0,1,.35-7.24,13.53,13.53,0,0,1,4.54-6.5,37.63,37.63,0,0,1,15.64-7.66,19.87,19.87,0,0,1,15,2.28c7.73,4.9,11.15,14.92,10.81,23.71-.47,12-7.37,23-13.93,32.62-7.75,11.39-16.4,22.83-19.07,36.67l4.18-1.1c-6.59-8.28-18.64-7.94-27.48-12.38-9.95-5-18.14-13.4-25.25-21.8-6.55-7.74-12.91-19.39-7.25-29.39,2.32-4.11,6.45-6.73,10.76-8.36A61.16,61.16,0,0,1,33,148.55c3-.31,6.07-.24,8.74,1.26a12.48,12.48,0,0,1,4.59,4.73c2.53,4.31,3.45,9.5,4.09,14.39a2.59,2.59,0,0,0,2.5,2.5,2.51,2.51,0,0,0,2.5-2.5c-1.28-9.73-4.06-22.5-15.29-25.05-5.91-1.34-12.36.28-18.11,1.75-5.38,1.38-10.73,3.42-15,7.1A21.3,21.3,0,0,0,0,168.27a31.7,31.7,0,0,0,4.86,17.1c3.23,5.42,7.57,10.15,11.92,14.68a93.82,93.82,0,0,0,13.91,12.2,56.55,56.55,0,0,0,17.9,7.95c5.42,1.46,11.26,2.84,14.92,7.44,1.15,1.44,3.84.64,4.18-1.1,2.5-13,10.52-23.73,17.82-34.39s14.76-22.67,15.35-36.06c.46-10.43-3.81-21.69-12.6-27.75-10.85-7.48-24.95-3.17-34.87,3.79a20.92,20.92,0,0,0-7.31,8,19.58,19.58,0,0,0-1.74,9.81c.54,7.11,3.7,13.76,7.11,19.91,1.56,2.82,5.88.3,4.32-2.52Z"/><path class="cls-6" d="M373.79,243.63c1.48-10.41,4.58-22.83,14.62-25.94a22.92,22.92,0,0,1,8.38-.65c8.93.61,18.36,3.57,23.67,10.77,7.5,10.18,3.8,25.42-4.94,34.57S394.35,276,382.34,280s-24.51,7.93-33.88,16.43c-.09-8.06-6.88-14.16-11.38-20.85-6.32-9.4-8.37-21-9.52-32.26-.72-7.08-1.12-14.36.81-21.21s6.58-13.29,13.3-15.66c8.08-2.84,16.9.67,24.62,4.4,4.19,2,8.56,4.34,10.94,8.34,4.42,7.46.1,16.87-4.2,24.41"/><path class="cls-7" d="M376.2,244.29a57.44,57.44,0,0,1,3.58-14.5c1.75-4.09,4.54-8,8.83-9.54,3.1-1.07,6.45-.9,9.67-.58a39.53,39.53,0,0,1,8,1.62c5,1.54,9.8,4.34,12.69,8.81,5.69,8.84,2.64,20.89-3.59,28.62-7.59,9.4-19.54,14-30.64,17.79-13.35,4.52-27.36,8.47-38.09,18.1l4.27,1.77c-.26-10.48-9.42-17.28-14-25.92-5-9.52-6.51-20.76-7.28-31.36-.71-9.78.05-21.4,8.45-27.95,8.83-6.88,20.74-1.48,29.34,3,4.76,2.5,9,5.93,9.1,11.74s-2.91,11.43-5.71,16.37c-1.59,2.8,2.73,5.32,4.32,2.52,2.91-5.12,5.6-10.58,6.27-16.51a16.54,16.54,0,0,0-6-14.91c-4.47-3.63-10.17-6.07-15.52-8.07-5.71-2.13-12.11-3.37-18.09-1.6-11.12,3.3-16.39,14.89-17.22,25.62a89.73,89.73,0,0,0,1,18.59,86.61,86.61,0,0,0,3.72,17.3,53.05,53.05,0,0,0,4,9,66.84,66.84,0,0,0,5.38,7.67c3.26,4.22,7.08,8.85,7.22,14.44a2.53,2.53,0,0,0,4.27,1.77c9.92-8.91,23.14-12.53,35.49-16.69,12.06-4.06,25.13-9.12,33.34-19.35,7.28-9.06,10.84-22.44,5.07-33.17-3-5.51-8.13-9.25-13.83-11.54a39.82,39.82,0,0,0-8.74-2.32,39,39,0,0,0-10.17-.5c-14.1,1.57-18.3,16.47-20,28.39a2.57,2.57,0,0,0,1.74,3.07,2.53,2.53,0,0,0,3.08-1.75Z"/><path class="cls-8" d="M227.31,35.06c-1.27-10.43-1.49-23.24,7.4-28.85a23,23,0,0,1,7.92-2.79c8.79-1.73,18.66-1.32,25.66,4.26,9.89,7.89,10.26,23.57,4.19,34.67S255.57,61,245,67.92s-21.61,14-28.46,24.65c-2.18-7.76-10.32-11.89-16.4-17.19-8.54-7.44-13.53-18.1-17.55-28.69C180,40,177.77,33.12,177.85,26s2.92-14.55,8.79-18.57c7.07-4.84,16.5-3.74,24.92-2.14,4.57.87,9.4,2,12.73,5.22,6.21,6.06,4.47,16.27,2.27,24.67"/><path class="cls-9" d="M229.81,35.06c-1-8.64-2.26-21.74,6.54-26.92,2.77-1.63,6.12-2.25,9.26-2.71a39.59,39.59,0,0,1,8.77-.3c5.35.42,10.64,2.37,14.34,6.37,6.67,7.2,6.48,18.94,2.66,27.45-4.93,11-15.22,18.54-24.95,25-11.71,7.81-24.21,15.26-32.06,27.33l4.57.6c-2.93-10-13.38-14.12-20-21.16-7.57-8-12-18.8-15.54-29.1-3.31-9.64-5.5-22.19,2.46-30.3,3.58-3.65,8.59-4.88,13.55-4.92a61,61,0,0,1,15.83,2.22,16.06,16.06,0,0,1,7.29,3.63,12,12,0,0,1,3.26,6.46c1,5.2-.33,10.76-1.63,15.77-.81,3.12,4,4.45,4.82,1.33,2.62-10.06,4.45-23.5-6.26-29.6-5-2.84-11.17-3.65-16.78-4.37-5.86-.75-11.94-.7-17.44,1.7A21.6,21.6,0,0,0,177.3,15.76c-2.22,5.6-2.3,11.7-1.3,17.58,1.08,6.3,3.42,12.38,5.84,18.28a87.26,87.26,0,0,0,8.29,16.07,53.14,53.14,0,0,0,6.41,7.78,73.42,73.42,0,0,0,7.15,5.9c4.17,3.17,8.88,6.61,10.43,11.87a2.53,2.53,0,0,0,4.57.59c7.27-11.17,19.08-18.09,29.93-25.31,10.52-7,21.72-15.18,27.08-27,4.61-10.21,4.82-23.17-2.38-32.27A24.87,24.87,0,0,0,257.57.51a42.72,42.72,0,0,0-19.92,1.6c-6.56,2.26-10.81,7.43-12.45,14.09-1.51,6.15-1.14,12.63-.39,18.86a2.58,2.58,0,0,0,2.5,2.5,2.51,2.51,0,0,0,2.5-2.5Z"/><path class="cls-10" d="M165.54,340.35c-1.9-3.41-3.77-7.8-1.5-11a8.62,8.62,0,0,1,2.34-2.08c2.79-1.82,6.25-3.06,9.44-2.12,4.51,1.33,6.84,6.68,6.3,11.36s-3.21,8.79-5.89,12.66-5.48,7.86-6.35,12.48c-1.84-2.36-5.22-2.65-8.06-3.62-4-1.37-7.2-4.34-10.07-7.43a21.32,21.32,0,0,1-4.53-6.47,8.47,8.47,0,0,1,.43-7.63c1.76-2.66,5.16-3.6,8.29-4.23a9,9,0,0,1,5.11,0c3,1.22,3.82,5,4.24,8.18"/><path class="cls-11" d="M167.7,339.09c-1.46-2.64-3.72-6.81-.7-9.18,2.62-2.07,7-3.78,9.9-1.4,2.29,1.86,3.12,5.29,2.71,8.12-.62,4.21-3.17,7.88-5.53,11.31-2.79,4-5.63,8.19-6.61,13.08l4.18-1.1c-2.55-3.07-6.53-3.09-9.93-4.56s-6.15-4.24-8.63-7c-2.25-2.47-5.07-6-3.79-9.61,1.1-3.08,5.36-3.78,8.16-4.24,1.75-.29,3.19-.09,4.08,1.49a14.17,14.17,0,0,1,1.34,5.13c.18,1.34,1.9,2.06,3.08,1.74a2.56,2.56,0,0,0,1.74-3.07c-.55-4.14-2-8.93-6.59-10.13-2.44-.64-5.08,0-7.47.55a15.56,15.56,0,0,0-6.3,2.92c-4,3.33-4,9-1.76,13.38a26.34,26.34,0,0,0,4.4,5.84,41.34,41.34,0,0,0,5.29,4.87,21.24,21.24,0,0,0,6.93,3.53c2.08.6,4.45.89,5.91,2.65a2.51,2.51,0,0,0,4.18-1.1c2-10.06,12.71-16.65,12.4-27.5-.12-4.36-2.16-9-6.09-11.19-4.69-2.62-10.4-.88-14.44,2.17a8.57,8.57,0,0,0-3.65,7.42,20,20,0,0,0,2.87,8.37c1.55,2.82,5.87.3,4.32-2.53Z"/></g></g></svg>