<svg xmlns="http://www.w3.org/2000/svg" viewBox="0 0 340.05 507.89"><defs><style>.cls-1{fill:#5fcaf4;}.cls-2{fill:#209dd8;}.cls-3{fill:#231f20;}.cls-4{fill:#f067a6;}.cls-5{fill:#ec008c;}</style></defs><g id="Layer_2" data-name="Layer 2"><g id="Layer_1-2" data-name="Layer 1"><g id="Layer_2-2" data-name="Layer 2"><g id="Layer_1-2-2" data-name="Layer 1-2"><path class="cls-1" d="M315.07,368.23c2.73,20.8-2,40.73-2.36,61.71-.22,12-2.25,17.83-9.2,27.61C299,463.9,292.72,472.6,286,476.61c-38.32,22.95-77.26,30.95-121.85,28.26-31.49-1.91-58-13.55-79.54-36.6C71.38,454.07,63.83,439.18,61,420s-8.41-37.78-7.27-57.19c1.65-28.13.41-56.35,2.27-84.49.94-14.09,2.29-28.42,6-42.1,4.65-17.35,1.19-27.07-9.84-41.53C23.45,157,4.11,111.26,2.6,64c-.3-9.3.19-19,4.79-27.14,2.38-4.19,5.75-7.72,9.14-11.15a102.18,102.18,0,0,1,15-13.18A58.62,58.62,0,0,1,88,7.83c11.47,5.31,20.88,14.24,29.16,23.78,3.9,4.48,7.63,9.18,10.2,14.52,3,6.17,4.29,13,5.79,19.66,2.08,9.3,4.55,18.51,7,27.72l21.27,79.4c3.63,13.54,7.23,28.11,2.4,41.27l13.07-.18c-.32-50.37-.47-102,17.11-149.24,4.27-11.43,9.71-22.72,18.36-31.32,7.68-7.62,17.45-12.71,27.06-17.66,10-5.13,20.1-10.3,31.12-12.32,11.79-2.16,24-.57,35.47,3,7.88,2.52,15.71,6.13,21,12.46,7.2,8.66,8.35,20.69,9.19,31.92,1.93,25.89,3.56,53.36-8.55,76.32-4.33,8.2-10.25,15.44-15.18,23.3-6.39,10.18-11.1,21.35-17.56,31.48-10.14,15.91-25.77,29.55-32.31,47.57-3.52,9.7,1.34,11.41,7,19a158.79,158.79,0,0,1,12.94,20.81C298.64,299.5,310.62,334.2,315.07,368.23Z"/><path class="cls-2" d="M312.57,368.23C315,387.89,311,407.41,310.29,427c-.27,7.43-.48,14.55-4,21.3a92.85,92.85,0,0,1-14.15,19.71c-5.91,6.42-13.81,10.3-21.52,14.17a192.3,192.3,0,0,1-23.74,10,196.14,196.14,0,0,1-50.06,10.06c-16.9,1.19-34.48,1.09-51.13-2.34a110.34,110.34,0,0,1-42.27-18.34c-13.06-9.38-24.77-21.79-32-36.21A83.32,83.32,0,0,1,64,422.53c-1.67-9.35-3.28-18.71-5-28.06-1.76-9.68-3.15-19.47-2.84-29.34.32-10.24.88-20.45,1-30.7.28-20.3.19-40.61,1.69-60.87a225.06,225.06,0,0,1,3.79-29.38c1.68-8,4.39-15.84,3.75-24.16C65.18,204.16,53,192.34,44.6,179.78,25,150.47,11,117,6.51,81.81a152.74,152.74,0,0,1-1.39-26c.43-9.3,3.08-17.43,9.36-24.42C20.48,24.73,27.14,18,34.8,13.3A55,55,0,0,1,58,5.49a56.59,56.59,0,0,1,24.23,2.7c8.24,2.83,15.58,7.85,22,13.66a109.51,109.51,0,0,1,17.64,19.78c5.34,8,7.09,17.07,9.19,26.27,4.54,19.87,10.24,39.51,15.51,59.2l8,30c2.59,9.64,5.49,19.26,7.48,29,1.85,9.1,2.46,18.48-.67,27.37a2.51,2.51,0,0,0,2.41,3.16l13.07-.18a2.54,2.54,0,0,0,2.5-2.5c-.35-47.28-.67-95.81,14.4-141.2,3.52-10.58,7.68-21.17,14.17-30.32S223.6,27,233.41,21.67C243.58,16.25,254,10.54,265.05,7.33c11.63-3.36,23.78-2.82,35.42.18,10,2.59,20.92,6.68,26.67,15.9s6,20.51,6.78,30.89c1.58,21.93,2.82,45.22-5.81,66-4.4,10.56-11.8,19.32-17.83,28.93-6.4,10.19-11.1,21.34-17.57,31.48-5.48,8.59-12.29,16.22-18.5,24.27a117.33,117.33,0,0,0-8.87,12.89c-2.51,4.31-5.11,9.19-6.1,14.12a12.86,12.86,0,0,0,2.11,10.46c2.82,3.93,6.21,7.38,9,11.39a217.66,217.66,0,0,1,16.91,30.42,294.88,294.88,0,0,1,22.45,66.87c1.16,5.68,2.14,11.39,2.9,17.13.42,3.14,5.43,3.18,5,0a286.41,286.41,0,0,0-18.83-70.07,309.48,309.48,0,0,0-15.16-32.12,169,169,0,0,0-9.21-15.13c-2.77-4-6.3-7.46-9-11.47s-.91-8.35.86-12.36a79.45,79.45,0,0,1,8-13.77c6.11-8.69,13.29-16.57,19.48-25.2,6.93-9.66,11.79-20.5,17.6-30.82s13.92-19.64,19.26-30.41c10.2-20.55,10.19-44.11,8.78-66.49-.68-10.76-.82-22.26-4.55-32.51S323.38,10.76,313.46,6.57A81.57,81.57,0,0,0,279.23,0c-12,.44-23.09,4.65-33.75,9.89-10.24,5-20.78,10.14-29.77,17.26s-15.28,16.55-20,26.84c-9.82,21.55-14.94,45.21-17.89,68.61-3.07,24.32-3.56,48.88-3.52,73.36q0,9,.09,18l2.5-2.5-13.07.18,2.41,3.17c3.21-9.13,2.77-18.83,1-28.21-1.88-10.09-4.92-20-7.57-29.89L143,94.3c-2.71-10.13-5.43-20.25-7.69-30.48-2.08-9.36-4.46-18.27-10.1-26.17-10.07-14.12-24-27.8-40.51-33.89a61.54,61.54,0,0,0-49,3.32c-8.27,4.3-15.07,10.81-21.54,17.41S2.82,38,1.09,47.17C-.58,56,0,65.25.7,74.18A207.47,207.47,0,0,0,4.8,101,231.15,231.15,0,0,0,23,152.21a256.9,256.9,0,0,0,13.37,24c4.89,7.76,10.36,15,15.73,22.45,4.4,6.1,8.41,12.8,9.28,20.42,1,8.65-2.1,16.83-3.76,25.19-4,20.1-4.7,40.91-5,61.35-.18,10.61-.2,21.22-.37,31.82s-1.17,21.35-1,32c.15,10,1.81,19.87,3.65,29.66,1.8,9.55,3.07,19.27,5.16,28.76,3.62,16.34,12.05,30.71,23.5,42.81a116.11,116.11,0,0,0,39.67,27.62c15.6,6.5,32.19,9,49,9.48,35.93,1.15,71.35-5.79,103.38-22.36,7.91-4.1,15.4-8.24,21.34-15,5.28-6,10.56-12.87,14.13-20.08,3.42-6.92,4.09-14.17,4.29-21.78.28-10.33,1.58-20.59,2.43-30.88.81-9.79,1.13-19.61-.1-29.38C317.18,365.08,312.17,365,312.57,368.23Z"/><path class="cls-1" d="M139.33,414.22c3.85-2.53,12.52,12.13,15,16s3.54,8.59,6.35,12.23c5.62,7.26,16.14,7.92,25.32,8,4.43,0,8.93,0,13.2-1.14s8.36-3.73,10.41-7.66c1.4-2.69,1.74-5.78,2.33-8.76s1.54-6.06,3.79-8.09,10.57-17.65,12.6-15.39"/><path class="cls-3" d="M140.59,416.38c.42-.26-.59.14-.12,0s-.27,0-.29,0c.67,0-.53-.18.15,0s-.3-.25.29.12c.32.2.64.38,1,.61-.45-.33.38.35.48.44.29.27.57.54.85.83.63.65,1.23,1.35,1.81,2.06a90.47,90.47,0,0,1,6.16,8.87c.88,1.38,1.79,2.75,2.54,4.21,1.29,2.54,2.22,5.25,3.6,7.74a20.76,20.76,0,0,0,11.8,9.47c4.86,1.66,10.14,2,15.23,2.08,6.11.11,12.62.28,18.38-2.08,5.48-2.25,9.49-6.35,10.95-12.17.69-2.79.93-5.68,1.86-8.41a9,9,0,0,1,1.61-3c.41-.48.89-.88,1.29-1.37,2.29-2.81,4.08-6,6.1-9,.57-.84,1.14-1.68,1.74-2.5l.28-.38c.1-.12.19-.25.28-.37h0l.72-.87c.22-.25.45-.5.68-.73s1-.82.28-.28a1,1,0,0,1,.25-.16c.47-.24-.56.16-.18.07a2.08,2.08,0,0,1-1.71-.45c2.27,2.28,5.81-1.25,3.53-3.54-2.63-2.65-5.7.63-7.31,2.68-2.29,2.93-4.25,6.09-6.28,9.2l-1.22,1.83c-.18.25-.35.51-.54.76l-.24.34c-.36.51.28-.31,0,0a18.54,18.54,0,0,0-3.76,5.54c-2.08,5.16-1.26,11.38-5.63,15.43s-10.65,4.46-16.24,4.51c-5.26,0-10.67.08-15.83-1.1-4.74-1.09-9-3.31-11.52-7.64-1.42-2.47-2.36-5.18-3.62-7.73a45,45,0,0,0-2.73-4.58,88.61,88.61,0,0,0-7.54-10.61c-2.16-2.52-5.95-6.36-9.57-4.17-2.75,1.66-.24,6,2.52,4.32Z"/><path class="cls-3" d="M217,282a5,5,0,0,0-2.72-5.84,6.19,6.19,0,0,0-7,.84c-1.93,1.62-2.84,4.09-3.61,6.4a55.91,55.91,0,0,0-2.29,8.46c-.8,4.84-.93,12.53,5,14.25,4.82,1.4,10.57-1.19,14.06-4.42a16.87,16.87,0,0,0,5.32-13.4c-.32-4.86-2.67-10.61-7.4-12.71-5.45-2.41-10.14,2.84-13.26,6.69-3.32,4.11-5,9.18-2.91,14.28a16,16,0,0,0,11.31,9.62,22.51,22.51,0,0,0,8.3.29c2.5-.36,5.23-1,7.13-2.81,4.31-4.05,1.27-10.45-1.52-14.42-3-4.29-7.26-8.25-12.27-10-5.45-1.93-10.86.79-13.94,5.37a22.59,22.59,0,0,0-3,7.51c-.62,2.69-1.41,5.76-.67,8.5s2.94,4.4,5.32,5.6a27.82,27.82,0,0,0,7.87,2.66c5.43.88,11.07.07,15.48-3.39a15.82,15.82,0,0,0,6.24-12.06,14.28,14.28,0,0,0-7.34-12.09c-9.59-5.59-21.54-.11-27.46,8.2-5.3,7.47-7.45,21.47,2.36,26.35,4.58,2.3,9.94,1.87,14.82,1,5.45-1,10.15-3.58,12.17-9,1.88-5,1.26-10.93-.58-15.9a34.54,34.54,0,0,0-8.67-13.52c-4.11-3.69-9.64-4.57-14.47-1.64s-6.87,8-7.35,13.32c-.45,5,.47,10.44,3.61,14.43,3.38,4.29,9,5.63,14.28,5.61,9.46,0,19.65-5.3,21.47-15.31a15.87,15.87,0,0,0-3.06-13.13c-3.26-3.93-8.74-5.52-13.7-5.12-5.57.45-10.81,3-15.46,6-4,2.56-8.25,6.22-9.21,11.11-1.07,5.53,2.34,9.85,6.55,13a37.87,37.87,0,0,0,14.77,7c5.22,1,11,.49,15.52-2.51a11.1,11.1,0,0,0,4.81-5.89,9.67,9.67,0,0,0-1-7.29c-2.61-4.73-8-6.43-12.85-7.7-3.11-.81-4.44,4-1.32,4.82,3.5.91,7.8,1.86,9.76,5.25a4.35,4.35,0,0,1,.46,4c-.75,1.63-2.54,2.72-4.09,3.47-7.68,3.69-16.54-.54-22.88-5-2.59-1.81-5.58-4.59-4.8-8.09.73-3.32,3.81-5.81,6.52-7.59a33.65,33.65,0,0,1,11.89-5.32c3.46-.66,7.65-.17,10.38,2.26,4.9,4.37,3.52,12.41-.91,16.57a17.88,17.88,0,0,1-9.72,4.34c-3.47.51-7.68.35-10.83-1.34s-4.7-5.22-5.12-8.72c-.46-3.84,0-8.11,2.22-11.35,1.81-2.6,5.36-4.39,8.48-3.2,3.53,1.36,6,5.39,7.8,8.51a24.93,24.93,0,0,1,3.65,11.77c.07,3.73-.84,7.79-4.32,9.73-3.16,1.76-7.4,2.25-11,2.24s-7-1-8.65-4.34c-1.57-3.08-1.23-6.92-.26-10.13a20.63,20.63,0,0,1,5.68-9c5.31-5,14.67-7.38,20.3-1.59,5.09,5.24,1.53,13.32-4.65,15.76a17.53,17.53,0,0,1-11.95-.12,15.8,15.8,0,0,1-5.07-2.5c-1.51-1.28-1-3.35-.67-5.07.72-3.78,1.72-8.09,5-10.56s7-1,10.11,1.25a24.31,24.31,0,0,1,7.53,9c.6,1.21,1.44,3.14.64,4.43s-3.13,1.62-4.51,1.86c-3.69.64-7.92.1-11-2.19a9.65,9.65,0,0,1-4-8.64c.53-3.77,3.87-6.78,6.5-9.24,1.08-1,2.23-2,3.71-1.22a8,8,0,0,1,3.24,4,12.32,12.32,0,0,1-6.54,16.16A12.88,12.88,0,0,1,212,301c-1.29.38-3.59,1-4.78.12S206,298.23,206,297c-.16-4.56,1.38-9.2,2.94-13.43.4-1.09,1.22-2.86,2.23-3.11a1.26,1.26,0,0,1,.87.2c.12.07.42.28.27.23s.12-.88-.1-.17c-1,3.08,3.86,4.4,4.82,1.33Z"/><path class="cls-3" d="M146.85,285.4c1.06-4.86-4-7.71-8.24-7.12a18.12,18.12,0,0,0-10.86,6.36c-2.47,3.22-2.48,8.09,1,10.61,1.77,1.28,4,1.59,6.13,1.87a24.91,24.91,0,0,0,6.51.14c4.13-.51,8.21-2.38,10.38-6.11a8.57,8.57,0,0,0-1.4-10.46c-5.27-5.42-15.63-6-21.72-1.68a11.46,11.46,0,0,0-5.08,9.58,9.88,9.88,0,0,0,6,8.69c6.71,3,17,1.49,21.17-5.1a9.44,9.44,0,0,0,0-9.73c-2.23-3.61-6.36-4.62-10.35-3.92-7.12,1.26-15.33,7.66-15.16,15.49a12,12,0,0,0,4.65,9.17c3.37,2.6,7.77,2.85,11.74,1.59,3.74-1.19,8.06-3.43,10-7a7.81,7.81,0,0,0,.6-6.32A9.37,9.37,0,0,0,148,286.9a52.84,52.84,0,0,0-12.44-5.26c-4.51-1.39-9.08-2.57-13.66-3.72s-9.19-2.23-13.79-3.28l-6.92-1.57c-2.16-.48-4.44-1-6.53,0-3.71,1.76-4.14,6.94-3.18,10.44A13.6,13.6,0,0,0,98.71,292c4.06,1.92,8.69,2.45,13.1,3a90.31,90.31,0,0,0,13.94.87c4.25-.12,8.67-.81,12.34-3.08,3-1.88,6.34-5.36,6.21-9.22-.1-2.9-2.89-3.82-5.33-3.15a11.22,11.22,0,0,0-4.86,2.85,11,11,0,0,0-2.93,10.47,8.51,8.51,0,0,0,8.36,6.38,10.62,10.62,0,0,0,8.74-5c2-3.4,1.29-7.73-.73-10.94s-6.29-7.3-10.54-5.4a7.89,7.89,0,0,0-3.72,4.06,20.37,20.37,0,0,0-2,6.83c-.35,4,1.67,8.32,5.43,10.06,6.89,3.18,15.72-2.79,13.87-10.54-.89-3.74-3.89-6.44-7.33-7.85a2.53,2.53,0,0,0-3.08,1.75,2.57,2.57,0,0,0,1.75,3.08,6.37,6.37,0,0,1,3.91,4.67,3.85,3.85,0,0,1-2.23,4,5,5,0,0,1-5.31.08c-2-1.38-2.35-4-1.85-6.16a16.18,16.18,0,0,1,1.43-4c.33-.62.78-1.59,1.59-1.48,1.05.13,2.07,1.34,2.73,2.07a9.12,9.12,0,0,1,1.91,3.12,4.51,4.51,0,0,1-1.11,5.22,5.3,5.3,0,0,1-4.76,1.22c-2.16-.68-2.8-3.42-2.2-5.48a6.48,6.48,0,0,1,1.84-2.91,6,6,0,0,1,1.5-1l.39-.16.69-.21q.61-.18.21,0l-1.1-.64c-.78-.68,0-1.38-.3-.65-.08.21-.12.45-.19.66a4.94,4.94,0,0,1-.47.95,8.24,8.24,0,0,1-1.91,2.17,13.33,13.33,0,0,1-5.35,2.52c-4.9,1.21-10.27.73-15.25.28-2.57-.23-5.13-.55-7.67-1a30.79,30.79,0,0,1-7-1.74c-3.23-1.42-5.75-4.65-5.32-8.32.06-.5.17-1.57.64-1.88s1.47-.07,2,0c2.69.55,5.35,1.2,8,1.81,5.32,1.22,10.63,2.47,15.92,3.82,5.11,1.31,10.27,2.62,15.24,4.41a42,42,0,0,1,6.62,3c1.4.8,3.34,1.76,3,3.67s-2.39,3.3-4,4.2a14.39,14.39,0,0,1-6.18,2,6.75,6.75,0,0,1-7.06-5.6c-.61-3.24,1.79-6.52,4.46-8.47s8-4.78,10.9-2.34a4.08,4.08,0,0,1,1.4,3.4,4.72,4.72,0,0,1-.37,1.61,6.23,6.23,0,0,1-1.75,2.1c-2.85,2.27-7.27,2.94-10.78,2.29s-6.4-2.87-5.44-6.56,4.68-5.38,8.16-5.67,8.23.42,10.43,3.5-1.61,6.31-4.46,7.12a17.75,17.75,0,0,1-7,.34c-1.37-.17-4.06-.24-4.75-1.66-1.62-3.34,5-6.55,7.41-7.21a3.9,3.9,0,0,1,2.61,0,2.73,2.73,0,0,1,.88.7c-.68,3.14,4.14,4.48,4.82,1.33Z"/><path class="cls-1" d="M139.33,414.22c3,2.28,7.58.89,10.07-1.92s3.46-6.62,4.51-10.23,2.39-7.39,5.33-9.74c4.4-3.52,11.8-2.17,14.68,2.67a20.22,20.22,0,0,1,1.93,5.43l4,16c4.32-5.21-.29-12.94.08-19.7a13,13,0,0,1,23.87-6.46c2.93,4.44,2.94,10.31,5.77,14.83,3.79,6,12.75,8.07,18.81,4.28"/><path class="cls-3" d="M138.07,416.38c4,2.82,9.53,1.28,12.74-1.94,3.64-3.65,4.54-8.89,6.09-13.58,1.2-3.67,3.35-7.53,7.31-8a7.7,7.7,0,0,1,8.24,4.77,75,75,0,0,1,2.43,9.23L177.42,417c.41,1.69,3,2.61,4.17,1.11,4.46-5.64,1.71-12.08.94-18.42A11.6,11.6,0,0,1,184,392a10.66,10.66,0,0,1,6.18-4.71c5.22-1.42,10.55,1.63,12.64,6.46,1.33,3.06,1.8,6.44,3.06,9.53a16.58,16.58,0,0,0,5.49,7.31,16.81,16.81,0,0,0,18.25.95c2.74-1.67.23-6-2.53-4.32a11.72,11.72,0,0,1-13.57-1.28c-4.76-4.34-4.13-11.75-7.58-16.93a16,16,0,0,0-16.4-6.71A15.79,15.79,0,0,0,177.61,395c-.57,3.67.27,7.29,1,10.89.53,2.72,1.36,6.36-.53,8.76l4.18,1.11c-1.5-6-2.78-12.18-4.55-18.13-1.38-4.62-4.46-8.21-9.27-9.36a12.39,12.39,0,0,0-12.33,3.65c-3.46,4-4.26,9.15-6,14-.78,2.22-1.92,4.64-4,5.94-1.78,1.11-3.81,1.51-5.57.25a2.51,2.51,0,0,0-3.42.89,2.58,2.58,0,0,0,.9,3.43Z"/><path class="cls-3" d="M193.69,268.2l5.77,11.27a2.53,2.53,0,0,0,3.42.9,2.57,2.57,0,0,0,.9-3.42L198,265.67a2.52,2.52,0,0,0-3.42-.89,2.58,2.58,0,0,0-.9,3.42Z"/><path class="cls-3" d="M210.45,264.21v10.84a2.5,2.5,0,0,0,5,0V264.21a2.5,2.5,0,0,0-5,0Z"/><path class="cls-3" d="M225.51,264.38l-3.07,13.39a2.5,2.5,0,0,0,4.83,1.33h0l3.06-13.39a2.5,2.5,0,1,0-4.82-1.33Z"/><path class="cls-3" d="M120,268l6.7,11.65A2.5,2.5,0,0,0,131,277.1l-6.71-11.64a2.5,2.5,0,1,0-4.44,2.28C119.89,267.82,119.93,267.9,120,268Z"/><path class="cls-3" d="M137.08,264.08c.21.88.38,1.77.53,2.66l.09.62c.11.7,0-.53,0,.17.05.45.1.9.14,1.35a39.49,39.49,0,0,1,.09,5.33,2.5,2.5,0,0,0,5,0,41.67,41.67,0,0,0-1.06-11.46A2.51,2.51,0,0,0,138.8,261a2.55,2.55,0,0,0-1.75,3.08Z"/><path class="cls-3" d="M154.46,266.57a49.44,49.44,0,0,0-7,11.4,2.81,2.81,0,0,0-.25,1.93,2.58,2.58,0,0,0,1.15,1.5c1.08.56,2.87.38,3.42-.9a46,46,0,0,1,2.86-5.59c.53-.89,1.08-1.76,1.67-2.6l.9-1.26.24-.31c0-.05.29-.39.09-.13s.07-.08.11-.13l.3-.38a2.7,2.7,0,0,0,.73-1.76,2.5,2.5,0,0,0-4.27-1.77Z"/><path class="cls-1" d="M82.36,208.53c3-4.12,2.78-9.72,2.11-14.79A128.44,128.44,0,0,0,75,159.39c-6.63-15.25-16.16-29.1-22.91-44.29S41.4,82.39,46.81,66.66c1.44-4.17,3.63-8.27,7.2-10.85,4.24-3.07,9.82-3.58,15-3.11a46.9,46.9,0,0,1,36.31,23.81c5.42,9.94,7,21.47,8.4,32.7L124.89,196"/><path class="cls-2" d="M84.52,209.79c3-4.3,3.18-9.82,2.6-14.87a124.12,124.12,0,0,0-3.21-17.1,147.48,147.48,0,0,0-13.1-32.54c-10.46-19.62-24-39.41-24-62.52A46.28,46.28,0,0,1,49.36,67c1.58-4.45,4.25-8.77,8.81-10.61,4.39-1.77,9.5-1.53,14.08-.69a44.5,44.5,0,0,1,32,24.27c4.81,10,5.94,21.39,7.34,32.27l9.59,74.57,1.18,9.17a2.58,2.58,0,0,0,2.5,2.5,2.53,2.53,0,0,0,2.5-2.5l-9.88-76.81c-1.49-11.62-2.37-23.65-6.12-34.83A50,50,0,0,0,93.67,59.6a47.8,47.8,0,0,0-27.88-9.55c-5.35,0-10.74,1.34-14.79,5s-6.27,9.13-7.61,14.33c-6,23.3,5.25,46.24,16.29,66.09,5.78,10.38,11.7,20.73,15.77,31.93a127.27,127.27,0,0,1,4.87,17c1.15,5.35,2.38,11.06,2,16.56a12.06,12.06,0,0,1-2.15,6.37,2.5,2.5,0,0,0,4.32,2.52Z"/><path class="cls-1" d="M204.05,203.87c7-18.84,8.46-39.18,11.07-59.1A501.52,501.52,0,0,1,233,62.42c1.33-4.31,2.87-8.85,6.32-11.75,4-3.31,9.47-3.76,14.61-4.06l20.51-1.21c8.62-.51,18.09-.77,24.9,4.54,4,3.1,6.47,7.74,8,12.52a45.3,45.3,0,0,1-6.4,40.32c-6.7,9.09-16.59,15.31-23.93,23.88-7.57,8.83-12.13,19.78-16.57,30.52l-19.16,46.34"/><path class="cls-2" d="M206.46,204.53c4.63-12.55,6.85-25.78,8.58-39,1.76-13.39,3.23-26.8,5.52-40.11q3.54-20.44,8.72-40.53,2.59-10,5.61-20c1.53-5,3-10.94,8-13.63a20.85,20.85,0,0,1,7.89-2c3.17-.29,6.36-.41,9.54-.6,6.56-.39,13.15-1,19.73-1.07,5.35-.1,11.06.21,15.81,2.93s7.63,7.76,9.27,12.91A42.84,42.84,0,0,1,302.21,96c-5.62,10.66-15.88,17.3-24.11,25.72-8.91,9.13-14.19,20.64-19,32.28q-8.13,19.54-16.18,39.12l-4,9.63a2.52,2.52,0,0,0,1.74,3.08,2.57,2.57,0,0,0,3.08-1.75l16.88-40.83C265.49,151.5,270,139,278.26,129c7.89-9.5,18.8-16.06,25.81-26.37a48,48,0,0,0,7.34-34.54,36.14,36.14,0,0,0-6.92-16.67,23.65,23.65,0,0,0-15-8.28c-6.1-1-12.25-.5-18.38-.14-6.88.4-13.82.59-20.68,1.27-6.24.62-12,2.48-15.71,7.88a31.25,31.25,0,0,0-3.58,8c-1,3.25-2,6.53-2.94,9.8q-6,20.63-10.13,41.69c-2.74,13.83-4.8,27.77-6.49,41.77-1.63,13.42-3.19,26.92-6.78,40q-1.35,4.91-3.11,9.69a2.5,2.5,0,0,0,4.78,1.47.83.83,0,0,0,0-.15Z"/></g></g><path class="cls-4" d="M105.2,315.82c.21,2.91-1.91,5.51-4.33,7.13s-5.23,2.6-7.61,4.28-4.39,4.39-4,7.28a7.39,7.39,0,0,0,3,4.64,10.63,10.63,0,0,0,9.24,1.79,9.36,9.36,0,0,0,6.41-6.74c1.2-5.45-2.88-11.51-.29-16.45"/><path class="cls-5" d="M100.2,315.82c0,.08,0,1.31,0,.46s0,0-.09.24l0,.17c-.19.53-.17.47.07-.16,0,.09-.36.63-.37.66-.5.89.1-.06.11-.09,0,.13-.4.46-.51.58s-.46.46-.7.67-.29.26-.45.38c.46-.35.54-.42.25-.21-2.27,1.25-4.65,2.43-6.86,3.79-5.65,3.49-9.43,10.05-6.14,16.5,2.92,5.72,10,8.22,16,7.24a14.16,14.16,0,0,0,11.37-11.27,27,27,0,0,0-.65-9.56c-.13-.63-.24-1.28-.37-1.91-.24-1.24.06.79,0,0,0-.31-.06-.62-.08-.93s0-.62,0-.92.26-1.31,0-.61,0,0,.09-.22c.32-1.24-.36.56.09-.35,1.15-2.34.71-5.52-1.79-6.84-2.26-1.19-5.61-.71-6.85,1.79a14.29,14.29,0,0,0-1.49,7.71c.21,2.39.77,4.71,1.17,7.06,0,.18.18,1,.06.3s0,.12,0,.3c0,.51.07,1,.07,1.53,0,.25,0,.51,0,.76,0,.7.23-.89,0-.21-.05.18-.08.36-.12.54s-.1.34-.16.51c-.13.36-.07.24.17-.35,0,.37-.51.94-.7,1.25-.34.53.08.21.12-.15,0,.09-.46.5-.49.53a4.51,4.51,0,0,0-.39.37c-.45.5.73-.47.16-.11-.27.18-1.06.88-1.4.83.35,0,.81-.28.19-.09-.24.07-.47.15-.72.21a3,3,0,0,1-.76.16c.12,0,1.15,0,.17-.06-.17,0-1.49.11-1.55-.05s1.26.3.17,0c-.31-.08-.63-.15-.94-.25s-1-.32-.32-.08,0,0-.12-.07c-.35-.19-1.12-.46-1.34-.8.38.59.42.36.11.07s-.36-.36-.55-.53c-.69-.63-.05,0,0,.13-.23-.18-.32-.56-.49-.8-.39-.53.17.81.06.17,0-.18-.24-1-.11-.26s0-.08,0-.26c-.07-.67-.26.85,0,.23.08-.22.15-.48.21-.71.15-.57-.1.36-.14.34a4.88,4.88,0,0,1,.38-.66c.54-1-.65.62.14-.22.36-.38.72-.74,1.11-1.09s.08-.34-.11.08c0-.12.44-.3.55-.37a33.07,33.07,0,0,1,3.25-1.79c5.34-2.71,10.87-6.89,10.62-13.57a5,5,0,0,0-10,0Z"/><path class="cls-4" d="M123,352a75,75,0,0,1-5.11,16.07c-1.24,2.78-2.77,5.61-5.35,7.2-1.48.91-3.21,1.35-4.63,2.35-3,2.15-3.87,6.66-2.32,10.05a12,12,0,0,0,8.68,6.39c4.88,1,10.53-.89,12.93-5.25,2.88-5.22.44-11.61-.87-17.43a43.77,43.77,0,0,1,.23-20.2"/><path class="cls-5" d="M118.18,350.66a75.84,75.84,0,0,1-3.5,12.17q-.29.76-.6,1.53c-.09.21-.17.43-.27.65,0-.09.29-.64,0-.12-.39.86-.76,1.72-1.19,2.55s-.82,1.44-1.27,2.14c-.57.89.11-.1.11-.1s-.32.37-.37.43c-.29.33-.61.62-.93.92-.78.72.12-.11.12-.09a3.18,3.18,0,0,1-.49.3,13.35,13.35,0,0,1-1.25.64c-.84.39-1.72.72-2.53,1.19a12,12,0,0,0-4.54,4.58A14,14,0,0,0,101.2,390c3.39,7.58,13.19,10.77,20.8,8.55a16,16,0,0,0,9.43-7.1c2.41-4.18,2.37-8.94,1.56-13.54-.37-2.11-.94-4.18-1.45-6.26-.27-1.07-.52-2.15-.72-3.23l-.12-.68s-.21-1.34-.12-.71,0-.2,0-.26c0-.3-.07-.61-.1-.92a44,44,0,0,1-.08-7.17c0-.54.08-1.08.14-1.62,0-.3.07-.61.11-.92-.07.52-.06.39,0,0,.21-1.22.45-2.43.74-3.63a5,5,0,0,0-9.64-2.66,50.9,50.9,0,0,0,.16,24.5c.41,1.66.86,3.32,1.21,5q.14.63.24,1.26c0,.21.39,1.53.07.33a10.14,10.14,0,0,1,.11,2.86c0,.29.11,1.5,0,.26a4.31,4.31,0,0,1-.26,1.17c-.05.2-.53,1.42,0,.32-.11.25-.24.5-.37.74s-.39.83-.55.87l.37-.47a5.47,5.47,0,0,1-.45.51c-.24.25-.49.47-.74.71-.42.34-.35.29.21-.16l-.57.38c-.3.18-.61.33-.9.5-1,.58,1-.31-.08,0-.67.21-1.33.39-2,.56-1.16.3,1.13,0-.06,0l-1,.06q-.52,0-1,0c-.24,0-.47,0-.7-.06.75.11.85.11.3,0s-1.71-.21-2.16-.62l.5.22-.68-.32c-.34-.17-.66-.36-1-.56s-1.3-.71-.2-.08a4.49,4.49,0,0,1-.83-.74,3.37,3.37,0,0,1-.75-.81q.6.8.12.12c-.14-.21-.26-.42-.38-.63l-.18-.33c-.24-.53-.21-.45.09.23-.1,0-.25-.88-.28-1-.35-1.08,0,1.11,0,0,0-.34,0-.69,0-1,0-1.14-.3,1.07,0,0,.09-.33.18-.66.26-1,.23-1-.1.33-.14.26a4.52,4.52,0,0,1,.66-1.15l-.37.48a5.11,5.11,0,0,1,.45-.48c.67-.8-1,.47.1-.08.71-.37,1.4-.75,2.14-1.07a15.85,15.85,0,0,0,4.92-3.25c3.1-3.13,4.76-7.44,6.33-11.47a76.37,76.37,0,0,0,3.66-12.6c.52-2.56-.73-5.52-3.49-6.15-2.49-.57-5.6.75-6.15,3.49Z"/><path class="cls-4" d="M241.66,314a34.83,34.83,0,0,1-.68,11.65,10.88,10.88,0,0,1-1,2.95,24.29,24.29,0,0,1-2,2.63,9.49,9.49,0,0,0-2,7.28,6.21,6.21,0,0,0,5.13,5.12,7.33,7.33,0,0,0,4.05-1c4-2.07,6.72-6.86,5.48-11.19a25.09,25.09,0,0,0-2.76-5.28c-2.26-3.92-3.38-8.38-4.48-12.77"/><path class="cls-5" d="M236.66,314a39.56,39.56,0,0,1,.21,4.21c0,.63,0,1.25-.08,1.88,0,.39,0,.78-.09,1.16s-.13,1,0,.3a33.07,33.07,0,0,1-.86,4.07c-.25.89-.09.27,0,.06-.14.26-.3.5-.43.75-.57,1.11.41-.42-.08.14-.28.31-.53.64-.79,1a16.05,16.05,0,0,0-3.73,9.15,11.9,11.9,0,0,0,3.22,8.65c4.81,5.24,12.57,3.53,17.18-1,4-3.91,5.89-10.06,3.74-15.36a30.69,30.69,0,0,0-2.39-4.54c-.38-.64-.75-1.27-1.08-1.93-.14-.27-.27-.54-.4-.81s-.53-1.28-.21-.47a73.92,73.92,0,0,1-2.72-9.11,5,5,0,1,0-9.64,2.65c1.2,4.8,2.5,9.66,5,14,.57,1,1.21,1.94,1.76,2.94.1.18.18.39.29.56.4.61-.19-.72,0,0,.07.26.17.51.24.77s.06.23.08.35c.08.38.07.22,0-.47a6.16,6.16,0,0,0,0,1.21c-.07,1.26.21-.64,0,.22-.1.33-.16,1.1-.42,1.34,0,0,.57-1.07.07-.23-.15.25-.28.52-.44.77s-.19.3-.29.45c-.54.84.08-.18.13-.16s-.91,1-1,1-.54.43-.54.47.77-.51.3-.25-.94.59-1.45.83c.87-.42-.28,0-.6.13-.68.24.79,0,.08,0s.82.28.18.07a3.83,3.83,0,0,0-.51-.13l.55.25-.31-.16-.29-.18.44.37c-.24-.07-.45-.46-.63-.61-.5-.42.42.75.13.17-.08-.15-.19-.31-.28-.45-.52-.82.14.12.06.22s-.18-.59-.2-.68c-.17-.46-.3-.29,0,.18a2.76,2.76,0,0,1,0-.81c0-.11.07-.79,0-.15s.11-.38.15-.53.17-.52.25-.78c-.06.19-.45.88,0,.07.23-.42.52-.82.74-1.24.34-.64-.51.58,0,0l.4-.48c.57-.7,1.15-1.4,1.66-2.15,1.81-2.66,2.24-6.12,2.64-9.23a37,37,0,0,0,.09-8.42c-.27-2.59-2.11-5.13-5-5-2.48.12-5.29,2.22-5,5Z"/><path class="cls-4" d="M228.71,362a46.32,46.32,0,0,1,4,24.28c-.33,3.13-1,6.41.19,9.34,1.32,3.38,4.81,5.51,8.37,6.2s7.23.18,10.82-.34a8.11,8.11,0,0,0,3.65-1.14,6,6,0,0,0,2.13-4.54c.38-5.89-4-10.89-8.05-15.15L231.8,361.75"/><path class="cls-5" d="M224.4,364.55c.18.4.37.81.54,1.22-.33-.79.06.17.17.45q.55,1.45,1,2.94a46.9,46.9,0,0,1,1.35,5.62c.08.44.14.88.21,1.32-.14-.89,0,.08.05.43.1,1,.18,1.92.22,2.88a44.58,44.58,0,0,1-.1,5.78c-.32,4.07-1.2,8.18.41,12.12a15.63,15.63,0,0,0,9.27,8.64c3.79,1.47,8,1.39,12,.9,4.62-.56,9.72-1.06,12-5.8,4-8.17-1.35-16.52-6.78-22.44-6.36-6.91-13-13.6-19.47-20.4a5,5,0,0,0-7.07,7.08l16,16.77c1.15,1.21,2.31,2.4,3.44,3.63.46.5.92,1,1.37,1.54l.79.95c.35.44.34.43,0,0l.48.66c.39.56.76,1.12,1.11,1.7q.3.53.57,1.05c.1.19.76,1.34.16.24a10.84,10.84,0,0,1,.68,2.23c.07.24.32.94,0-.17a5.49,5.49,0,0,1,.06,1.57l0,.4c0,.56,0,.49,0-.22a3.29,3.29,0,0,1-.3,1.09l.1-.26c.16-.37.14-.35-.07.06l-.2.31c.42-.53.43-.59,0-.2l.4-.34c-.5.25-.45.24.15-.05-.12.17-.93.25-1.13.28-.84.17-1.71.28-2.56.39,1.1-.15-.46.05-.55.06l-1.42.14c-.79.06-1.57.1-2.36.1-.47,0-.94,0-1.41-.05-.13,0-1.63-.21-.54,0a16.88,16.88,0,0,1-2.23-.55l-.35-.12c-.51-.2-.46-.18.18.08a3.63,3.63,0,0,1-1-.5c-.2-.12-.81-.38-.92-.59.24.45.56.5.16.12s-.51-.51-.77-.75c-.85-.75.46.88-.11-.1-.08-.14-.59-.76-.54-.92.26.67.28.71.06.11-.07-.21-.14-.42-.19-.64s-.18-1.23-.08-.19c0-.45-.06-.89-.06-1.34a24.48,24.48,0,0,1,.16-2.71c.19-1.79.43-3.57.51-5.37A52.22,52.22,0,0,0,233,359.5c-1.09-2.38-4.72-3.16-6.84-1.79a5.14,5.14,0,0,0-1.79,6.84Z"/></g></g></svg>