<svg xmlns="http://www.w3.org/2000/svg" viewBox="0 0 336.67 374.44"><defs><style>.cls-1{fill:#805aa6;}.cls-2{fill:#ec008c;}</style></defs><g id="Layer_2" data-name="Layer 2"><g id="Layer_1-2" data-name="Layer 1"><path class="cls-1" d="M147.09,46a26.7,26.7,0,0,1,1.7-6.13l-1.51,3.59a29.73,29.73,0,0,1,3.82-6.51l-2.35,3a35.67,35.67,0,0,1,6-6l-3,2.35a38.14,38.14,0,0,1,8.4-4.9l-3.59,1.51a47.26,47.26,0,0,1,11.22-3l-4,.54a70.37,70.37,0,0,1,18.45.26l-4-.54a119,119,0,0,1,29.55,8.21l-3.58-1.51a109.38,109.38,0,0,1,23.95,13.7l-3-2.34a67.13,67.13,0,0,1,11.79,11.55l-2.34-3a46.76,46.76,0,0,1,6.1,10.31l-1.51-3.59a38.66,38.66,0,0,1,2.54,9.38l-.54-4A44.53,44.53,0,0,1,241,80.28l.53-4C240.05,86.81,236,97,231.86,106.77l1.51-3.59a114.65,114.65,0,0,1-14.05,25.09l2.34-3a90.44,90.44,0,0,1-16.25,16l3-2.35c-10.88,8.38-23,15.16-34.95,21.84Q164,166,154.33,171c-5.87,3-11.9,5.8-17.71,9a58.06,58.06,0,0,0-7.39,4.7,61.81,61.81,0,0,0-5.82,4.75,48.54,48.54,0,0,0-4.9,5.9,23.67,23.67,0,0,0-2.08,3.26,42.05,42.05,0,0,0-3.19,7.92,45.4,45.4,0,0,0-1.46,13.39c.26,7.58,1.81,15.22,3.38,22.63A174.08,174.08,0,0,0,120,260.76c5.12,15.65,12.63,30.27,23.73,42.54a15,15,0,0,0,21.22,0c2.62-2.86,4.57-6.61,4.39-10.61a16.32,16.32,0,0,0-4.39-10.6c-1.43-1.58-2.79-3.2-4.09-4.88l2.34,3a96.17,96.17,0,0,1-12.12-21.19l1.51,3.58a165.14,165.14,0,0,1-10.82-40.95l.53,4a46.05,46.05,0,0,1-.24-12l-.53,4a26,26,0,0,1,1.56-5.89l-1.51,3.58a23.33,23.33,0,0,1,3-5.09l-2.34,3a31.1,31.1,0,0,1,5.21-5.11l-3,2.35a78.79,78.79,0,0,1,13.37-7.76q8.5-4.2,16.91-8.62c11.21-5.91,22.29-12.11,33.11-18.72s21.47-14,30.16-23.21a111.68,111.68,0,0,0,20.59-32.18c2.81-6.44,5.43-13,7.75-19.59a95.5,95.5,0,0,0,5-22,43,43,0,0,0-.08-9.55,53.78,53.78,0,0,0-2.2-11.06,60.35,60.35,0,0,0-9.66-17.72c-7.53-9.74-17.46-17.37-28.17-23.35a133.8,133.8,0,0,0-36.58-14A112.27,112.27,0,0,0,172.71,0,65.87,65.87,0,0,0,151.55,2.9a55.66,55.66,0,0,0-19.12,10.76,48.61,48.61,0,0,0-7.24,8.11,31,31,0,0,0-3.66,6.14A39.74,39.74,0,0,0,118.16,38a11.27,11.27,0,0,0-.27,6,11.15,11.15,0,0,0,1.78,5.58,15.27,15.27,0,0,0,9,6.89c3.84.87,8.15.69,11.55-1.51,3.06-2,6.32-5.2,6.9-9Z"/><path class="cls-1" d="M158.31,360.35A15.47,15.47,0,0,0,168.92,356a15.23,15.23,0,0,0,4.39-10.61c-.17-3.88-1.45-7.9-4.39-10.61a15.63,15.63,0,0,0-10.61-4.39,15.47,15.47,0,0,0-10.61,4.39,15.25,15.25,0,0,0-4.39,10.61c.17,3.88,1.45,7.9,4.39,10.61a15.63,15.63,0,0,0,10.61,4.39Z"/><path class="cls-2" d="M25.62,228a32.45,32.45,0,0,1,5.19-5.09l-3,2.34a35.91,35.91,0,0,1,7.77-4.52L32,222.26a37.2,37.2,0,0,1,9.38-2.52l-4,.53a36.58,36.58,0,0,1,9.35,0l-4-.54A33.87,33.87,0,0,1,51.06,222l-3.58-1.51a32.12,32.12,0,0,1,6.58,3.85L51,222a35,35,0,0,1,6.12,6.1l-2.35-3a37.59,37.59,0,0,1,4.73,8.08L58,229.61A37,37,0,0,1,60.56,239L60,235a34.22,34.22,0,0,1,0,8.64l.53-4a35.06,35.06,0,0,1-2.41,8.63l1.51-3.59a55.1,55.1,0,0,1-7,11.63l2.34-3c-4.52,5.85-9.77,11.06-14.5,16.73-6.36,7.63-11.85,15.63-14.94,25.16a51.43,51.43,0,0,0-1.81,9.55,28.18,28.18,0,0,0-.1,6.36,11.23,11.23,0,0,0,1.29,5.77,11.23,11.23,0,0,0,3.1,4.83,15.29,15.29,0,0,0,10.61,4.4c3.88-.18,7.9-1.45,10.6-4.4,2.54-2.77,4.77-6.7,4.4-10.6a28.22,28.22,0,0,1,.12-6.56l-.53,4a35.36,35.36,0,0,1,2.32-8.26L54,303.83a59.16,59.16,0,0,1,7.87-13l-2.35,3c7.07-9.06,15.56-16.87,21.93-26.51a53.52,53.52,0,0,0,7.45-16.67,52.05,52.05,0,0,0,1.37-10.17,56.48,56.48,0,0,0-.89-10.21,48.39,48.39,0,0,0-5.47-15.4,56.75,56.75,0,0,0-5.79-8.26,35.15,35.15,0,0,0-4.55-4.74,49.25,49.25,0,0,0-17.31-9.83,54.58,54.58,0,0,0-10.08-1.86,36.1,36.1,0,0,0-6.41-.18,56.76,56.76,0,0,0-10.85,1.63,56.36,56.36,0,0,0-10.12,3.88,43.12,43.12,0,0,0-7.7,5,39.89,39.89,0,0,0-6.72,6.26,11.33,11.33,0,0,0-3.1,4.83A11.29,11.29,0,0,0,0,217.4,15.26,15.26,0,0,0,4.4,228C7.26,230.63,11,232.58,15,232.4c3.74-.17,8.14-1.36,10.61-4.39Z"/><path class="cls-2" d="M37.94,374.44a15.47,15.47,0,0,0,10.6-4.39,15.29,15.29,0,0,0,4.4-10.61c-.18-3.88-1.45-7.9-4.4-10.61a15.59,15.59,0,0,0-10.6-4.39,15.47,15.47,0,0,0-10.61,4.39,15.25,15.25,0,0,0-4.39,10.61c.17,3.88,1.44,7.9,4.39,10.61a15.59,15.59,0,0,0,10.61,4.39Z"/><path class="cls-2" d="M263.36,219.13a101.59,101.59,0,0,1,22.11-5.6l-4,.54c4.66-.62,9.54-1.18,14.23-.55l-4-.54a20.89,20.89,0,0,1,4.64,1.28l-3.59-1.51a28.56,28.56,0,0,1,5.87,3.5l-3-2.34a49.93,49.93,0,0,1,8.9,8.89l-2.35-3a44.76,44.76,0,0,1,5.69,9.36l-1.51-3.59a14.75,14.75,0,0,1,.86,2.89l-.53-4a9.36,9.36,0,0,1,0,2.48l.54-4a9.69,9.69,0,0,1-.65,2.17l1.51-3.58a13.87,13.87,0,0,1-1.61,2.62l2.34-3a39.34,39.34,0,0,1-5.15,5c-2.11,1.84-4.25,3.65-6.39,5.44q-6.36,5.31-12.92,10.37l3-2.35Q275,249.12,262,257.78c-10,6.66-20.75,12.67-27.32,23.15a34.87,34.87,0,0,0-2.48,5.06,31.72,31.72,0,0,0-1.89,5.26,34.29,34.29,0,0,0-.14,14.75c.66,3.52,3.9,7.21,6.89,9a15.36,15.36,0,0,0,11.56,1.51c3.63-1.18,7.13-3.43,9-6.9l1.52-3.58a15.18,15.18,0,0,0,0-8c-.06-.27-.1-.54-.14-.8l.53,4a17.51,17.51,0,0,1,0-4.4l-.53,4a21.08,21.08,0,0,1,1.42-5.05l-1.51,3.59a25.59,25.59,0,0,1,3.13-5.29l-2.35,3a37.9,37.9,0,0,1,6.45-6.27l-3,2.34c4.36-3.36,9.12-6.17,13.7-9.21q7.2-4.77,14.2-9.82,15.17-11,29.5-23c4.79-4.05,10.2-8.13,13.21-13.78A24.48,24.48,0,0,0,336,220a36.52,36.52,0,0,0-4.67-10.56,76.71,76.71,0,0,0-6.44-8.86,48.8,48.8,0,0,0-5.35-5.6c-5.49-4.93-12-9.56-19.44-10.88-8.66-1.54-17.26-.47-25.88,1a100.28,100.28,0,0,0-18.87,5.11,16.69,16.69,0,0,0-9,6.89,15.32,15.32,0,0,0-1.51,11.56c1.17,3.63,3.42,7.13,6.89,9s7.83,2.92,11.56,1.52Z"/><path class="cls-2" d="M247.1,364.44a15.47,15.47,0,0,0,10.61-4.39,15.23,15.23,0,0,0,4.39-10.61c-.17-3.88-1.45-7.9-4.39-10.61a15,15,0,0,0-21.21,0,15.26,15.26,0,0,0-4.4,10.61c.18,3.88,1.45,7.9,4.4,10.61a15.59,15.59,0,0,0,10.6,4.39Z"/><path class="cls-2" d="M41.68,64.62c3.37-1.73,6.74-3.46,10.23-4.94L48.33,61.2A48.33,48.33,0,0,1,60.4,57.74l-4,.54A41.71,41.71,0,0,1,67,58.3l-4-.53a43.21,43.21,0,0,1,10.6,2.87L70,59.13a41.65,41.65,0,0,1,9.14,5.34l-3-2.35A18,18,0,0,1,79,64.74l-2.35-3a3.25,3.25,0,0,1,.38.65l-1.51-3.58a2.43,2.43,0,0,1,.19.76l-.53-4a3.05,3.05,0,0,1,0,.8l.54-4a7.09,7.09,0,0,1-.39,1.18L76.82,50A79.52,79.52,0,0,1,68,63.13l2.34-3c-5.56,7.15-12.13,13.38-17.47,20.72-6.62,9.11-9.6,20.75-7,31.81A15,15,0,0,0,64.36,123.1c3.63-1.18,7.14-3.43,9-6.9a16.06,16.06,0,0,0,1.51-11.56c-.13-.55-.24-1.1-.33-1.67l.54,4a20.4,20.4,0,0,1,0-5.06l-.54,4a26.47,26.47,0,0,1,1.84-6.59l-1.52,3.58a38.86,38.86,0,0,1,4.92-8.15l-2.34,3C81.85,92.05,87.13,87,91.6,81.31c2.94-3.77,5.81-7.57,8.38-11.6a49.93,49.93,0,0,0,2.74-4.61,19.85,19.85,0,0,0,2.49-9.16,17.85,17.85,0,0,0-2.64-9.38,21,21,0,0,0-5.22-5.65,67.14,67.14,0,0,0-6.93-5,59,59,0,0,0-11.78-5.28,59.83,59.83,0,0,0-13.21-2.49,55.65,55.65,0,0,0-13,.69c-9.2,1.3-17.71,5.7-25.88,9.91-3.24,1.67-5.94,5.52-6.89,9a15.29,15.29,0,0,0,1.51,11.56c2.06,3.21,5.14,6,9,6.9a16.38,16.38,0,0,0,11.56-1.52Z"/><path class="cls-2" d="M73.77,173.61a15.48,15.48,0,0,0,10.61-4.4,15.23,15.23,0,0,0,4.39-10.6c-.17-3.88-1.45-7.91-4.39-10.61a15.63,15.63,0,0,0-10.61-4.39A15.47,15.47,0,0,0,63.16,148a15.23,15.23,0,0,0-4.39,10.61c.17,3.88,1.45,7.9,4.39,10.6a15.59,15.59,0,0,0,10.61,4.4Z"/></g></g></svg>