<svg fill="#000000" xmlns="http://www.w3.org/2000/svg" viewBox="0 0 546.96 52.87" ><defs></defs><g id="Layer_2" data-name="Layer 2"><g id="Layer_1-2" data-name="Layer 1"><path class="cls-1" d="M19.5,42.15c.05-.28.16-.59.19-.87.07-.93-.37,1-.52,1.06s.54-.86.55-.94-1.38,1.67-.7,1c.43-.42-1.87,1.34-.28.23.34-.24,1.54-.7.09-.12s-.15.08.18,0c.59-.14,2.22-.17.77-.27-1.74-.11.74,0,1.19,0,.65,0,1.29,0,1.94.07.33,0,1.43-.05,0,0-1.62,0,.13.06.57.17q.93.21,1.83.51c.3.1.58.23.88.32,1.11.33-1.39-.68,0,0,1.9,1,3.9,1.84,5.86,2.69,4.66,2,9.23,3.74,14.38,3.93,9.17.34,15.4-5.25,21.84-10.84l.77-.66c1.15-1-.46.26-.45.33,0-.2,1.42-1,1.62-1.07s.59-.28.84-.46c.87-.6-.86.52-1,.4.06.07,1.25-.51,1.21-.34-.09.42-2.33-.11-.73.15.36.06,1.36.32.15,0-1.53-.46,0,.23.1.12l.35.11c.7.25.46.14-.7-.3l1,.54c.66.38,1.26.85,1.9,1.25.94.58-.39-.33-.47-.39.52.4,1,.81,1.54,1.22,3.87,3.11,7.51,5.72,12.17,7.5a35,35,0,0,0,12.25,2.14c8.4.06,16.72-2.4,24.42-5.57Q126.6,42.54,130,41l2.52-1.12,1.7-.75c.16-.07,1.87-.79.95-.41s.46-.18.54-.21L137,38c1-.39,2-.77,3.07-1.13,2-.71,4.1-1.35,6.2-1.86.89-.21,1.78-.38,2.67-.57.14,0,1.62-.29.44-.1s.59,0,.89-.08a38.73,38.73,0,0,1,5.7,0c-2.15-.14.62.18,1.22.33.86.22,1.69.53,2.53.8,1.43.45-1.19-.75,0,0,.33.22.74.38,1.09.57.83.47,1.63,1,2.42,1.51.57.39,2.48,1.79,1,.62.65.5,1.29,1,1.93,1.55,1.95,1.58,3.9,3.15,5.89,4.68a43.09,43.09,0,0,0,11.23,6.26c8.11,3.08,17.64,2.7,25.89.37,7.86-2.21,14.6-6.31,21.08-11.15,3-2.2,5.9-4.44,9.05-6.37,1-.62,3.3-2.49,4.5-2.4,0,0-1.76.6-.61.29.36-.1.71-.26,1.07-.37a24.53,24.53,0,0,0,2.92-.71c-.06.14-1.95.1-.8.14.37,0,.76,0,1.13,0a5.72,5.72,0,0,1,1.53.06s-2-.47-.67-.08c.81.25,1.69.51,2.52.69,1.06.24-.17-.09-.37-.19.66.32,1.31.65,1.94,1,3.51,2,6.62,4.51,9.93,6.75,7.54,5.09,15.93,8.66,25,9.5,8.88.82,17.65-2.51,25.15-7,3.33-2,6.5-4.23,9.72-6.39,1.56-1,3.14-2.09,4.77-3.05.77-.46,1.55-.89,2.35-1.31.39-.21.79-.42,1.2-.62.21-.11,2.39-1.14,1.26-.63-.81.37,1.32-.49,1.72-.63,1-.33,2-.63,3-.87a24.47,24.47,0,0,1,2.55-.51c-2,.28.43.07,1.16.08.57,0,1.12.06,1.69.08,1.17,0-.45,0-.58-.06.79.27,1.65.43,2.46.67-.39-.12-1.65-.89,0,0,.37.21.74.4,1.09.62.57.34,2.52,1.78,1.05.61,3.43,2.73,6.52,5.81,10.08,8.39A37.44,37.44,0,0,0,367.7,43C385.17,48,403,41.41,417.75,32.19c3.6-2.24,7.09-4.63,10.59-7l-13.68-3.59c11.18,17.8,35.15,24.29,53.89,14.92,4.54-2.27,8.48-5.73,12.31-9,1.55-1.33,3.1-2.64,4.67-3.95,1.89-1.57-1.21.82.06,0,.41-.28.8-.58,1.2-.86a31.48,31.48,0,0,1,3.1-1.87c1.09-.56.91-1.17-.13,0a5.27,5.27,0,0,1,1.33-.46c.45-.14.91-.24,1.37-.36,1.84-.5-.35.18-.54,0,.05,0,4.19.3,2.59,0s1,.31,1.05.32c.26.08,2.41.81,1.1.32s1,.52,1,.54c.49.25,1,.52,1.46.8,1,.56,1.93,1.17,2.87,1.79,2.25,1.5,4.42,3.11,6.66,4.62,10.39,7,25.73,10.05,35.38.1,3.64-3.76,4-10.45,0-14.14s-10.25-4-14.14,0c0,0-.83,1-1,1,1.64-.06,1-1.24.36-.43l-.59.3,1.16-.52c0,.05-1.29.34-1.29.35-.07-.35,2.28-.08.64-.1-.47,0-.93,0-1.39,0a5.75,5.75,0,0,1-1.41-.1c1.34.19,1.64.22.87.08-.36-.07-.72-.15-1.07-.24a24.6,24.6,0,0,1-2.49-.76c-2.35-.83,1.18.66-1-.46a47.65,47.65,0,0,1-5.64-3.54C508,3.51,498.63-1.91,487.14.65c-9.29,2.06-16.7,9.38-23.66,15.41-1.08.93,1.37-1,.22-.16-.41.29-.81.6-1.23.89-.71.5-1.44,1-2.19,1.43s-1.62.88-2.44,1.3c-1.76.89.47-.18.48-.2a8.85,8.85,0,0,1-2,.66c-.87.26-1.77.48-2.67.66a6.43,6.43,0,0,1-1.35.24s2.62-.2.6-.11-3.9-.05-5.87-.05c-1.37,0,1.95.4.6.09-.56-.12-1.14-.19-1.71-.31a32.45,32.45,0,0,1-3.35-.9c-.44-.14-.87-.31-1.31-.45-1.76-.56,1.21.66.15.08-.91-.5-1.87-.9-2.77-1.42s-1.71-1.16-2.61-1.68c-1.15-.66,1.34,1.24.39.31-.4-.4-.87-.74-1.29-1.13-.85-.79-1.6-1.64-2.38-2.49s-.38.11.29.39c-.42-.17-.94-1.38-1.15-1.73-2.72-4.33-9.1-6.73-13.69-3.59A165.27,165.27,0,0,1,396.56,21c-.28.13-1.75.77-.18.11l-1.3.52c-.87.33-1.75.65-2.64.95a49.29,49.29,0,0,1-5.87,1.57c-.75.15-3.13.45-1.13.25-.85.09-1.7.18-2.55.23-2.14.13-4.22,0-6.36-.1-1.16,0,.43.07.57.1l-1.24-.22q-1.44-.27-2.85-.66c-.8-.23-1.59-.5-2.37-.77-.18-.07-1.42-.63-.35-.13,1.24.59-.83-.45-1.06-.57q-1.11-.6-2.16-1.29c-.47-.31-.92-.64-1.38-1,.14.1,1.18,1,.38.25-1.42-1.36-3-2.63-4.45-3.91a37.76,37.76,0,0,0-12.55-7.74c-4.85-1.67-9.94-1.56-14.93-.82C325.69,9,318,13.48,311.06,18.2c-3.21,2.18-6.39,4.4-9.76,6.33q-1.29.73-2.61,1.41l-1.14.56c-.15.07-1.44.63-.34.17s-.47.16-.76.26-.78.28-1.18.4c-1.07.34-2.15.58-3.24.82-1.88.41,1.28,0-.73.07-1,0-2.05.05-3.08,0l-1.31-.11c.19,0,1.61.34.5,0s-2.29-.49-3.42-.83c-.85-.25-1.67-.6-2.52-.84-1.07-.31.15.09.33.17-.55-.23-1.1-.49-1.63-.75a58,58,0,0,1-5.51-3.05c-7.18-4.49-13.55-10.62-22.27-11.93-9.06-1.38-17.42,1.43-25,6.4-6.21,4.09-11.74,9.22-18.45,12.52l-1.55.73c.13-.07,1.48-.56.41-.19s-1.88.7-2.83,1a54.93,54.93,0,0,1-5.8,1.38c1.76-.35.16,0-.68,0s-2,.09-2.93.07-1.66-.11-2.49-.15c-1.16-.06.49.06.61.09-.67-.17-1.36-.26-2-.43s-1.6-.43-2.38-.7l-1.17-.43c1.84.72.46.18.09,0a55.86,55.86,0,0,1-4.85-3.08c-1.54-1.11.9.76-.58-.46l-2.24-1.82c-1.94-1.58-3.9-3.14-5.92-4.62a36.59,36.59,0,0,0-25.27-6.84c-9.74,1-18.51,4.5-27.4,8.46-1.62.72-3.24,1.45-4.87,2.16,1.89-.82-.78.31-1.24.49-1.1.43-2.2.84-3.31,1.22-1.8.63-3.62,1.2-5.47,1.67-.84.22-1.69.42-2.54.59s-3.75.52-1.57.33a39.29,39.29,0,0,1-5.42.19c-.43,0-2.73-.36-1.52-.1s-.08-.05-.28-.1c-.66-.17-1.32-.31-2-.51-.38-.11-.77-.28-1.16-.38.13,0,1.51.75.49.22-.87-.45-1.74-.88-2.57-1.41-.65-.41-1.26-.88-1.89-1.32,1.9,1.33-.59-.5-1.06-.88-3.63-2.88-7.27-5.73-11.85-6.93a20.7,20.7,0,0,0-14.56,1.68c-3.24,1.57-6,4.11-8.64,6.5-.6.53-1.2,1.08-1.81,1.6-.25.22-.54.43-.78.67-.8.82.71-.54.69-.5a6.19,6.19,0,0,1-2,1.31l-.87.49c-1.43.82.55-.3.56-.24a11.78,11.78,0,0,1-1.7.44c.31-.07,1.53,0,.54-.15a7.77,7.77,0,0,0-1.28,0c.41,0,2,.46.11,0-.85-.21-1.7-.42-2.54-.7-.43-.13-.85-.29-1.28-.44s-2.22-1-.57-.21c-3.9-1.79-7.82-3.95-12-5.12-7-2-15.86-1.72-22,2.61A17.58,17.58,0,0,0,.21,36.83c-1,5.12,1.43,11,7,12.3,4.93,1.13,11.25-1.49,12.3-7Z"/></g></g></svg>